<?xml version="1.0" encoding="UTF-8" standalone="no"?>
<!-- Created with Inkscape (http://www.inkscape.org/) -->

<svg width="297mm" height="210mm" viewBox="0 0 297 210" version="1.1" id="svg5" xmlns:xlink="http://www.w3.org/1999/xlink" xmlns="http://www.w3.org/2000/svg" xmlns:svg="http://www.w3.org/2000/svg">
  <defs id="defs2">
    <clipPath id="clipEmfPath1" clipPathUnits="userSpaceOnUse">
      <path id="path3341" d="M 4.4748,-1.78992 H 587.093 V 839.472 H 4.4748 Z" />
    </clipPath>
    <pattern y="0" x="0" height="6" width="6" patternUnits="userSpaceOnUse" id="EMFhbasepattern" />
    <clipPath id="clipEmfPath1-1" clipPathUnits="userSpaceOnUse">
      <path id="path6104" d="M 0.894959,2.68488 H 532.501 V 447.48 H 0.894959 Z" />
    </clipPath>
    <pattern y="0" x="0" height="6" width="6" patternUnits="userSpaceOnUse" id="EMFhbasepattern-6" />
    <clipPath clipPathUnits="userSpaceOnUse" id="clipPath28876">
      <rect style="fill:#000000;fill-rule:evenodd;stroke-width:0.176999;-inkscape-stroke:none;stop-color:#000000" id="rect28878" width="319.05453" height="251.55374" x="53.144768" y="36.788616" />
    </clipPath>
    <clipPath clipPathUnits="userSpaceOnUse" id="clipPath30292">
      <rect style="fill:#000000;fill-rule:evenodd;stroke-width:0.866351;-inkscape-stroke:none;stop-color:#000000" id="rect30294" width="668.49908" height="668.28064" x="369.65359" y="333.26743" />
    </clipPath>
  </defs>
  <g id="layer1">
    <rect style="font-variation-settings:normal;vector-effect:none;fill:#ffffff;fill-opacity:1;fill-rule:evenodd;stroke-width:0.282713;stroke-linecap:butt;stroke-linejoin:miter;stroke-miterlimit:4;stroke-dasharray:none;stroke-dashoffset:0;stroke-opacity:1;-inkscape-stroke:none;stop-color:#000000" id="rect43146" width="297" height="210" x="8.437695e-15" y="1.110223e-14" />
    <g id="g43830" transform="translate(20.200365,4.1978167)">
      <g id="g38543" transform="matrix(0.28947767,0,0,0.28947767,59.673219,112.59615)">
        <g id="g818" transform="matrix(0.59583198,0,0,0.59583198,-322.27685,-417.70928)">
          <circle id="path12427-9-3-9" style="color:#000000;fill:none;stroke:#000000;stroke-width:24.084" transform="matrix(0.41522,0,0,0.41522,203.67,311.84)" cx="351.13956" cy="557.68408" r="180.62735" />
          <circle id="path12427-9-3-9-8-5" style="color:#000000;fill:none;stroke:#000000;stroke-width:40.139" transform="matrix(0.24913,0,0,0.24913,261.99,404.46)" cx="351.13956" cy="557.68408" r="180.62735" />
          <circle id="path12427-9-3-9-8-2-3" style="color:#000000;fill:#000000" transform="matrix(0.12121,0,0,0.12121,306.91,475.8)" cx="351.13956" cy="557.68408" r="180.62735" />
          <path id="path13189-0" d="M 349.48,455.93 V 630.88" style="fill:none;stroke:#000000;stroke-width:5;stroke-linecap:round" />
          <path id="path45" style="fill:none;stroke:#000000;stroke-width:5;stroke-linecap:round" d="M 436.98,543.41 H 262.03" />
        </g>
        <path id="path44334" style="font-size:31.081px;line-height:1.25;font-family:Colaborate-Medium;-inkscape-font-specification:Colaborate-Medium;letter-spacing:0px;word-spacing:0px;baseline-shift:baseline;vector-effect:none;stroke-width:1.21448;stop-color:#000000" d="M 152.04297 414.62109 C 144.6638 414.62109 141.60156 419.2798 141.60156 426.04688 C 141.60156 431.99782 143.64305 437.71094 151.73633 437.71094 C 155.03484 437.71094 156.87009 437.06449 159.14844 435.73828 L 159.14844 425.29883 L 150.47852 425.29883 L 150.47852 428.59766 L 155.33984 428.59766 L 155.33984 433.5625 C 154.28568 434.1746 153.40214 434.41211 151.83789 434.41211 C 147.31518 434.41211 146.02344 431.35171 146.02344 426.04688 C 146.02344 419.65385 148.5056 417.91992 152.07617 417.91992 C 153.5724 417.91992 154.9316 418.53127 156.25781 419.10938 L 157.58398 415.50586 C 156.01973 415.09779 153.57321 414.62109 152.04297 414.62109 z M 199.41211 414.72266 L 199.41211 437.06445 L 203.25391 437.06445 L 203.25391 414.72266 L 199.41211 414.72266 z M 170.30273 421.04883 C 164.72585 421.04883 162.61719 424.8903 162.61719 429.20898 C 162.61719 433.69769 164.69184 437.54102 170.30273 437.54102 C 175.87961 437.54102 177.95508 433.66369 177.95508 429.20898 C 177.95508 424.68627 175.94762 421.04883 170.30273 421.04883 z M 188.69922 421.08203 C 186.25083 421.08203 183.56456 421.49016 181.49023 422.23828 L 182.81641 425.40039 C 184.31264 424.68628 186.35376 424.04102 188.49609 424.04102 C 190.46841 424.04102 190.70703 425.36645 190.70703 426.55664 L 190.70703 427.30469 L 189.41406 427.30469 C 182.78301 427.30469 180.87891 429.82187 180.87891 432.98438 C 180.87891 435.94284 182.98701 437.50781 186.93164 437.50781 C 188.63191 437.50781 190.12839 436.31613 190.97852 435.5 L 191.55664 437.06445 L 195.19531 437.06445 C 194.99128 435.33018 194.58203 433.52888 194.58203 432.30469 L 194.58203 426.04688 C 194.58203 422.64633 192.13376 421.08203 188.69922 421.08203 z M 170.30273 424.00586 C 172.88714 424.00586 174.00977 425.40038 174.00977 429.20898 C 174.00977 432.98358 172.68311 434.58203 170.30273 434.58203 C 167.71832 434.58203 166.5625 432.71154 166.5625 429.20898 C 166.5625 425.40038 167.85435 424.00586 170.30273 424.00586 z M 189.89062 429.89062 L 190.74023 429.89062 L 190.74023 432.94922 C 190.12814 433.79935 189.07471 434.54883 187.64648 434.54883 C 186.21826 434.54883 184.89062 434.14066 184.89062 432.81445 C 184.89062 430.94416 186.21805 429.89062 189.89062 429.89062 z " transform="matrix(0.91400257,0,0,0.91400257,-275.92313,-403.46451)" />
      </g>
      <g id="g38716" transform="matrix(0.28947767,0,0,0.28947767,81.892204,105.99461)">
        <path d="m 207.20001,-305.1324 c 0,-1.6657 1.35032,-3.01602 3.016,-3.01602 h 21.93312 c 1.66567,0 3.01602,1.35032 3.01602,3.01602 v 29.41831 c 0,1.66573 -1.35035,3.01596 -3.01602,3.01596 h -21.93312 c -1.66568,0 -3.016,-1.35023 -3.016,-3.01596 z m 53.72991,-36.85339 c 4.54402,-0.37171 8.55704,3.44692 9.07113,7.86175 0.9271,4.74529 -0.01,6.69818 -2.37895,10.77886 -1.2616,2.80433 -0.93902,2.36213 -0.25582,5.5564 2.37804,0.65772 5.34118,-0.081 7.93958,0.16609 4.24888,0.099 8.60139,-0.18437 12.7573,0.82736 2.79196,1.31023 4.62176,4.31316 5.35123,7.22778 -0.1778,2.67428 -4.29307,4.86822 -1.525,7.58743 2.40688,2.36488 1.0993,5.2477 -1.14248,7.13288 -2.06602,2.78026 2.55979,5.72562 0.43027,8.57699 -1.54584,2.15494 -4.60701,3.75663 -3.81861,6.87572 0.36068,3.13386 -2.71066,5.15872 -4.93721,6.75838 -3.92071,1.95732 -8.51198,1.4478 -12.76365,1.54889 -7.11754,-0.22453 -14.29603,-0.31445 -21.26066,-1.95628 -3.3418,-0.63297 -6.69945,-1.19431 -10.03089,-1.87452 l -0.0983,-31.62158 c 2.81186,0.39959 5.07793,-1.61305 6.56535,-3.78015 3.29201,-4.43543 6.69062,-6.8856 9.0493,-11.81315 2.20379,-3.31967 2.66914,-4.27796 3.95585,-8.29128 1.83097,-4.25029 1.42112,-6.12357 1.91159,-10.65896 0,0 1.60003,-0.91683 1.17962,-0.90269 z" id="ThumbsUp-3" style="fill:#000000;stroke:none;stroke-width:0" />
        <path id="text8372" style="font-style:normal;font-variant:normal;font-weight:normal;font-stretch:normal;font-size:31.081px;line-height:1.25;font-family:Colaborate-Medium;-inkscape-font-specification:Colaborate-Medium;font-variant-ligatures:normal;font-variant-position:normal;font-variant-caps:normal;font-variant-numeric:normal;font-variant-alternates:normal;font-variant-east-asian:normal;font-feature-settings:normal;font-variation-settings:normal;text-indent:0;text-align:start;text-decoration-line:none;text-decoration-style:solid;text-decoration-color:#000000;letter-spacing:0px;word-spacing:0px;text-transform:none;writing-mode:lr-tb;direction:ltr;text-orientation:mixed;dominant-baseline:auto;baseline-shift:baseline;text-anchor:start;white-space:normal;shape-padding:0;shape-margin:0;inline-size:0;opacity:1;vector-effect:none;fill:#000000;fill-opacity:1;stroke-width:1.21448;stroke-linecap:butt;stroke-linejoin:miter;stroke-miterlimit:4;stroke-dasharray:none;stroke-dashoffset:0;stroke-opacity:1;-inkscape-stroke:none;stop-color:#000000;stop-opacity:1" d="M 581.86523 137.41992 L 581.86523 159.41992 L 585.94531 159.41992 L 585.94531 141.97656 L 592.13477 159.41992 L 596.52148 159.41992 L 602.71094 141.97656 L 602.71094 159.41992 L 606.92773 159.41992 L 606.92773 137.41992 L 600.19336 137.41992 L 594.48047 153.67383 L 588.9043 137.41992 L 581.86523 137.41992 z M 641.95312 137.41992 L 641.95312 140.75195 L 645.99805 140.75195 L 645.99805 137.41992 L 641.95312 137.41992 z M 697.34766 137.41992 L 697.34766 140.75195 L 701.39258 140.75195 L 701.39258 137.41992 L 697.34766 137.41992 z M 631.41016 139.69727 L 631.41016 143.8457 L 628.82617 143.8457 L 628.82617 146.83789 L 631.41016 146.83789 L 631.41016 155.33984 C 631.41016 159.31847 634.67462 161.7666 638.44922 162.71875 L 639.4707 159.41992 C 636.88629 158.80783 635.25391 157.85683 635.25391 155.64648 L 635.25391 146.83789 L 638.89258 146.83789 L 638.89258 143.8457 L 635.25391 143.8457 L 635.25391 139.69727 L 631.41016 139.69727 z M 686.80469 139.69727 L 686.80469 143.8457 L 684.2207 143.8457 L 684.2207 146.83789 L 686.80469 146.83789 L 686.80469 155.33984 C 686.80469 159.31847 690.06915 161.7666 693.84375 162.71875 L 694.86523 159.41992 C 692.28083 158.80783 690.64844 157.85683 690.64844 155.64648 L 690.64844 146.83789 L 694.28711 146.83789 L 694.28711 143.8457 L 690.64844 143.8457 L 690.64844 139.69727 L 686.80469 139.69727 z M 619.27148 143.4043 C 613.6946 143.4043 611.58594 147.24772 611.58594 151.56641 C 611.58594 156.05512 613.6606 159.89648 619.27148 159.89648 C 624.84837 159.89648 626.92188 156.02111 626.92188 151.56641 C 626.92188 147.04369 624.91638 143.4043 619.27148 143.4043 z M 712.7168 143.4043 C 707.13992 143.4043 705.03125 147.24772 705.03125 151.56641 C 705.03125 156.05512 707.10591 159.89648 712.7168 159.89648 C 718.29368 159.89648 720.36914 156.02111 720.36914 151.56641 C 720.36914 147.04369 718.36169 143.4043 712.7168 143.4043 z M 731.96484 143.4043 C 729.7885 143.4043 728.46251 145.23981 727.81641 145.91992 L 727.20312 143.88086 L 723.66602 143.88086 C 723.80204 144.96903 724.07422 145.88748 724.07422 147.17969 L 724.07422 159.41992 L 727.91797 159.41992 L 727.91797 149.28711 C 728.63208 147.82488 729.72011 146.36328 731.31836 146.36328 C 733.59672 146.36328 733.73242 147.92679 733.73242 149.45703 L 733.73242 159.41992 L 737.57422 159.41992 L 737.57422 149.62695 C 737.57422 146.05639 736.52156 143.4043 731.96484 143.4043 z M 675.31055 143.4375 C 672.86216 143.4375 670.17589 143.84563 668.10156 144.59375 L 669.42773 147.75781 C 670.92397 147.0437 672.96508 146.39648 675.10742 146.39648 C 677.07973 146.39648 677.31836 147.72387 677.31836 148.91406 L 677.31836 149.66211 L 676.02539 149.66211 C 669.39434 149.66211 667.49023 152.17734 667.49023 155.33984 C 667.49023 158.29831 669.59835 159.86328 673.54297 159.86328 C 675.24324 159.86328 676.73971 158.67355 677.58984 157.85742 L 678.16797 159.41992 L 681.80664 159.41992 C 681.60261 157.68565 681.19531 155.88435 681.19531 154.66016 L 681.19531 148.40234 C 681.19531 145.00181 678.74509 143.4375 675.31055 143.4375 z M 642.05469 143.88086 L 642.05469 159.41992 L 645.89648 159.41992 L 645.89648 143.88086 L 642.05469 143.88086 z M 649.39844 143.88086 L 655.41797 159.41992 L 659.19336 159.41992 L 665.21094 143.88086 L 661.19922 143.88086 L 657.42383 154.89844 L 653.51367 143.88086 L 649.39844 143.88086 z M 697.44922 143.88086 L 697.44922 159.41992 L 701.29102 159.41992 L 701.29102 143.88086 L 697.44922 143.88086 z M 619.27148 146.36328 C 621.85589 146.36328 622.97656 147.7578 622.97656 151.56641 C 622.97656 155.341 621.65186 156.9375 619.27148 156.9375 C 616.68708 156.9375 615.5293 155.06896 615.5293 151.56641 C 615.5293 147.7578 616.8231 146.36328 619.27148 146.36328 z M 712.7168 146.36328 C 715.30121 146.36328 716.42383 147.7578 716.42383 151.56641 C 716.42383 155.341 715.09717 156.9375 712.7168 156.9375 C 710.13239 156.9375 708.97656 155.06896 708.97656 151.56641 C 708.97656 147.7578 710.26841 146.36328 712.7168 146.36328 z M 676.50195 152.24609 L 677.35156 152.24609 L 677.35156 155.30664 C 676.73947 156.15677 675.68604 156.9043 674.25781 156.9043 C 672.82959 156.9043 671.50195 156.49613 671.50195 155.16992 C 671.50195 153.29963 672.82937 152.24609 676.50195 152.24609 z " transform="matrix(0.91400257,0,0,0.91400257,-352.67856,-380.65951)" />
      </g>
      <g id="g38711" transform="matrix(0.28947767,0,0,0.28947767,81.396011,122.2119)">
        <path id="path44123" style="font-size:31.081px;line-height:1.25;font-family:Colaborate-Medium;-inkscape-font-specification:Colaborate-Medium;letter-spacing:0px;word-spacing:0px;baseline-shift:baseline;vector-effect:none;stroke-width:1.21448;stop-color:#000000" d="M 857.95312 231.06641 L 857.95312 239.9082 C 857.06899 238.68401 855.77735 237.42578 853.87305 237.42578 C 849.41834 237.42578 847.44531 241.23406 847.44531 245.55273 C 847.44531 250.00744 849.2132 253.85156 854.41602 253.85156 C 856.35433 253.85156 857.57861 252.62587 858.05469 251.84375 L 858.66602 253.4082 L 862.20312 253.4082 C 861.96508 251.57192 861.79492 250.62075 861.79492 248.64844 L 861.79492 231.06641 L 857.95312 231.06641 z M 833.16211 231.4082 L 824.21875 253.4082 L 828.77539 253.4082 L 830.84961 247.52539 L 838.70508 247.52539 L 840.67773 253.4082 L 845.4043 253.4082 L 837.10742 231.4082 L 833.16211 231.4082 z M 884.47656 231.4082 L 884.47656 234.74023 L 888.52344 234.74023 L 888.52344 231.4082 L 884.47656 231.4082 z M 834.93164 236.16797 L 837.61719 244.29492 L 832.04102 244.29492 L 834.93164 236.16797 z M 899.94922 237.42578 C 894.67838 237.42578 892.16211 240.72501 892.16211 245.75781 C 892.16211 250.51856 894.74685 253.85156 899.84766 253.85156 C 901.03784 253.85156 904.13207 253.34176 905.32227 252.76367 L 903.99609 249.59961 C 902.66988 250.27972 900.93502 250.89258 899.88086 250.89258 C 897.56849 250.89258 896.10742 249.39639 896.10742 245.75781 C 896.10742 241.77918 897.3316 240.38477 899.91602 240.38477 C 901.07219 240.38477 902.7032 241.09964 903.85938 241.67773 L 905.18555 238.51367 C 904.06337 238.07159 901.34344 237.42578 899.94922 237.42578 z M 915.32031 237.42578 C 909.5734 237.42578 907.94141 242.18644 907.94141 245.79102 C 907.94141 250.1097 910.42229 253.85156 915.45508 253.85156 C 917.59742 253.85156 919.97932 253.47709 921.84961 252.62695 L 920.58984 249.66797 C 918.95758 250.4841 917.19075 250.99414 915.72852 250.99414 C 913.58618 250.99414 912.29238 249.59958 911.98633 247.11719 L 922.66406 247.11719 C 922.66406 240.62216 920.72717 237.42578 915.32031 237.42578 z M 865.26367 237.86914 L 871.2832 253.4082 L 875.05664 253.4082 L 881.07617 237.86914 L 877.06445 237.86914 L 873.28906 248.88672 L 869.37891 237.86914 L 865.26367 237.86914 z M 884.57812 237.86914 L 884.57812 253.4082 L 888.42188 253.4082 L 888.42188 237.86914 L 884.57812 237.86914 z M 854.58594 240.38477 C 856.25219 240.38477 857.20535 241.91473 858.02148 243.37695 L 858.02148 248.7168 C 857.34138 250.17902 856.35355 250.89258 855.02734 250.89258 C 852.68097 250.89258 851.39063 249.73574 851.39062 245.62109 C 851.39062 241.40442 852.85165 240.38477 854.58594 240.38477 z M 915.28516 240.38477 C 917.29147 240.38477 918.78895 241.40481 918.95898 244.36328 L 911.98633 244.36328 C 912.12236 241.13277 914.02695 240.38477 915.28516 240.38477 z " transform="matrix(0.91400257,0,0,0.91400257,-350.96447,-436.6821)" />
        <g id="g11576" transform="matrix(0.74894183,0,0,0.74894183,328.71685,-400.34433)">
          <g id="layer1-7" transform="matrix(0.26458333,0,0,0.26458333,85.743942,105.0608)">
            <g id="g1537">
              <path id="path1474" class="st0" d="m 259.5,477 c 0,-0.2 0.4,-2.6 1,-5.3 0.6,-2.7 1.5,-6.6 1.9,-8.6 0.5,-2.1 1.5,-6.3 2.3,-9.4 4.4,-17.2 16.4,-67 16.4,-67.9 0,-0.7 -0.8,-1.1 -2.1,-1.1 -28.3,-0.2 -55.5,-1.7 -70.7,-3.8 -15.1,-2.1 -37.5,-6.3 -48,-9.1 -7.4,-1.9 -31.7,-9.7 -32.6,-10.4 -0.4,-0.3 -1.6,-0.8 -2.6,-1.1 C 118.7,358.4 91.8,345.6 83,340.2 54.6,323 33,300.9 22.1,278.2 12,257 10.1,232.3 16.8,210.3 19,203 19,203.2 23.5,193.8 29.6,181.2 41.1,166 51.6,156.5 c 2.6,-2.4 5.9,-5.3 7.4,-6.6 13.8,-12.4 39.2,-28.2 61.7,-38.2 19.1,-8.5 43.7,-16.9 62.1,-21.1 19,-4.4 26.5,-5.9 34.6,-7.1 1.8,-0.3 5.3,-0.8 7.7,-1.1 5.2,-0.8 8,-1.1 22.5,-2.7 12.9,-1.4 51.7,-2 65.6,-1 15.4,1.1 43.9,4.2 45,4.9 0.2,0.2 4.6,1 9.8,1.8 17.2,2.8 43.1,10.5 62.1,18.4 31.2,12.9 54.6,27.7 72.7,46 5.1,5.1 10,10.5 11,12 1,1.5 2.9,4.3 4.2,6.1 6.7,9.4 12.8,22.4 15.5,32.9 6.5,25.6 2.4,51.7 -12,75.4 -8.2,13.4 -28.6,35.3 -40.2,43.1 -1.5,1 -4.3,3.1 -6.1,4.6 -3.4,2.7 -16,10.6 -25.3,15.9 -6.6,3.7 -26.1,13.3 -27.1,13.3 -0.4,0 -2.9,1 -5.5,2.2 -11.2,5.1 -36.2,13 -56.9,18 -6.8,1.6 -13.4,3.1 -14.6,3.3 -4.1,0.7 -4.7,1.3 -14.7,13.9 -5.5,6.9 -10.1,12.7 -10.4,12.9 -0.6,0.5 -14.1,17.2 -18.9,23.3 -1.9,2.5 -4.6,5.8 -6,7.4 -1.4,1.6 -3.6,4.2 -4.9,5.8 -5.3,6.6 -6.6,8.2 -7,8.5 -0.2,0.2 -2.6,3.2 -5.4,6.8 -2.7,3.5 -6.2,7.7 -7.7,9.3 -1.5,1.6 -2.7,3.1 -2.7,3.4 0,0.8 -6.6,7.5 -7.3,7.5 -0.4,0 -0.9,0.4 -1.1,0.9 -0.2,0.5 -0.2,0.9 -0.2,0.7 z" style="fill:#000000" />
            </g>
          </g>
          <path d="m 158.45372,141.60773 c -2.3885,0 -3.88985,1.77432 -3.88985,3.8216 0,2.11553 1.56959,3.88985 3.88985,3.88985 2.3885,0 3.88984,-1.77432 3.88984,-3.88985 0,-2.04728 -1.50134,-3.8216 -3.88984,-3.8216 z m 7.6432,44.01667 c -4.57227,0 -4.91348,-1.02364 -4.91348,-4.98173 v -26.00054 h -1.77432 l -8.59861,1.9108 v 1.97904 c 0,0 0.75068,-0.13649 1.70608,-0.13649 1.97904,0 3.00268,0.27298 3.00268,3.20742 v 19.03977 c 0,3.88984 -0.20472,4.98173 -4.777,4.98173 v 1.9108 h 15.35465 z" id="path44726" style="font-size:68.2429px;line-height:1.25;font-family:STIX;-inkscape-font-specification:STIX;letter-spacing:0px;word-spacing:0px;fill:#ffffff;stroke-width:2.43724" />
        </g>
      </g>
      <g id="g38696" transform="matrix(0.28947767,0,0,0.28947767,76.405713,131.99051)">
        <g id="g11802" transform="matrix(0.08691173,0,0,0.08691173,361.59474,-23.3546)">
          <g id="g11610">
            <radialGradient id="SVGID_1_" cx="886.61572" cy="8.7931995" r="62.426601" fx="862.1004" fy="7.9906998" gradientTransform="translate(0,58.2075)" gradientUnits="userSpaceOnUse">
              <stop offset="0" style="stop-color:#FFFFFF" id="stop11578" />
              <stop offset="0.045" style="stop-color:#F4F4F4" id="stop11580" />
              <stop offset="0.3957" style="stop-color:#9F9F9F" id="stop11582" />
              <stop offset="0.6825" style="stop-color:#606060" id="stop11584" />
              <stop offset="0.891" style="stop-color:#3A3A3A" id="stop11586" />
              <stop offset="1" style="stop-color:#2B2B2B" id="stop11588" />
            </radialGradient>
            <circle fill="url(#SVGID_1_)" cx="850.64697" cy="116.354" r="88.25" id="circle11591" style="fill:#000000" />
            <linearGradient id="SVGID_2_" gradientUnits="userSpaceOnUse" x1="738.98029" y1="838.38318" x2="854.42389" y2="838.38318" gradientTransform="matrix(0.9637,0,0,1,82.8647,58.2075)">
              <stop offset="0" style="stop-color:#000000" id="stop11593" />
              <stop offset="0.0856" style="stop-color:#0A0A0A" id="stop11595" />
              <stop offset="0.2338" style="stop-color:#272727" id="stop11597" />
              <stop offset="0.4267" style="stop-color:#545454" id="stop11599" />
              <stop offset="0.657" style="stop-color:#949494" id="stop11601" />
              <stop offset="0.9162" style="stop-color:#E4E4E4" id="stop11603" />
              <stop offset="1" style="stop-color:#FFFFFF" id="stop11605" />
            </linearGradient>
            <path fill="url(#SVGID_2_)" d="M 906.273,1628.104 H 795.02 V 179.509 c 0,-19.242 111.253,-19.242 111.253,0 z" id="path11608" style="fill:#000000" />
          </g>
          <g id="g11705">
            <g id="g11655">
              <path fill="#066c46" d="m 242.021,396.798 h 1218.008 c 3.825,0 7.519,1.393 10.392,3.918 l 175.743,154.487 c 7.131,6.268 7.131,17.375 0,23.643 l -175.711,154.458 c -2.892,2.542 -6.616,3.936 -10.466,3.918 l -1218.04,-5.753 c -8.664,-0.041 -15.665,-7.076 -15.665,-15.74 V 412.538 c -0.001,-8.693 7.046,-15.74 15.739,-15.74 z" id="path11612" style="fill:#ffffff" />
              <linearGradient id="SVGID_3_" gradientUnits="userSpaceOnUse" x1="205.369" y1="508.80249" x2="1672.4249" y2="508.80249" gradientTransform="translate(0,58.2075)">
                <stop offset="0" style="stop-color:#E5E2DF" id="stop11614" />
                <stop offset="0" style="stop-color:#D6D7D7" id="stop11616" />
                <stop offset="0" style="stop-color:#D1D3D4" id="stop11618" />
                <stop offset="0.0676" style="stop-color:#EDEEEE" id="stop11620" />
                <stop offset="0.1067" style="stop-color:#FFFFFF" id="stop11622" />
                <stop offset="0.1185" style="stop-color:#F2F2F2" id="stop11624" />
                <stop offset="0.1574" style="stop-color:#CBCCCD" id="stop11626" />
                <stop offset="0.1931" style="stop-color:#AEB0B2" id="stop11628" />
                <stop offset="0.2242" style="stop-color:#9D9FA2" id="stop11630" />
                <stop offset="0.2472" style="stop-color:#97999C" id="stop11632" />
                <stop offset="0.5922" style="stop-color:#D1D3D4" id="stop11634" />
                <stop offset="0.6818" style="stop-color:#DBDCDD" id="stop11636" />
                <stop offset="0.8321" style="stop-color:#F5F5F5" id="stop11638" />
                <stop offset="0.882" style="stop-color:#FFFFFF" id="stop11640" />
                <stop offset="0.8972" style="stop-color:#EAEBEC" id="stop11642" />
                <stop offset="0.9214" style="stop-color:#D0D2D3" id="stop11644" />
                <stop offset="0.9463" style="stop-color:#BEBFC2" id="stop11646" />
                <stop offset="0.972" style="stop-color:#B3B5B7" id="stop11648" />
                <stop offset="1" style="stop-color:#AFB1B4" id="stop11650" />
              </linearGradient>
              <path fill="url(#SVGID_3_)" d="m 1460.029,396.798 c 3.825,0 7.519,1.393 10.392,3.918 l 175.743,154.487 c 7.131,6.268 7.131,17.375 0,23.643 l -175.711,154.458 c -2.874,2.526 -6.568,3.918 -10.392,3.918 -0.025,0 -0.049,0 -0.074,0 l -1218.04,-5.753 c -8.664,-0.041 -15.666,-7.076 -15.666,-15.74 V 412.538 c 0,-8.693 7.047,-15.74 15.74,-15.74 h 1218.008 m 0,-20.913 H 242.021 c -20.21,0 -36.652,16.442 -36.652,36.652 v 303.192 c 0,20.115 16.365,36.557 36.479,36.652 l 1218.04,5.753 0.173,10e-4 c 8.911,0 17.505,-3.24 24.199,-9.124 l 175.711,-154.459 c 7.914,-6.957 12.454,-16.991 12.454,-27.528 0,-10.538 -4.539,-20.571 -12.454,-27.528 L 1484.228,385.009 c -6.694,-5.884 -15.287,-9.124 -24.199,-9.124 z" id="path11653" style="fill:#000000" />
            </g>
            <g id="g11703">
              <radialGradient id="SVGID_4_" cx="854.78229" cy="364.40811" r="30.6422" gradientTransform="translate(0,58.2075)" gradientUnits="userSpaceOnUse">
                <stop offset="0" style="stop-color:#E5E2DF" id="stop11657" />
                <stop offset="0" style="stop-color:#F1EFEE" id="stop11659" />
                <stop offset="0" style="stop-color:#FFFFFF" id="stop11661" />
                <stop offset="0.1259" style="stop-color:#F0F0F1" id="stop11663" />
                <stop offset="0.3664" style="stop-color:#C9CACB" id="stop11665" />
                <stop offset="0.5225" style="stop-color:#ADAEB0" id="stop11667" />
                <stop offset="0.6029" style="stop-color:#A3A5A7" id="stop11669" />
                <stop offset="0.7382" style="stop-color:#898D90" id="stop11671" />
                <stop offset="0.9108" style="stop-color:#5F6769" id="stop11673" />
                <stop offset="1" style="stop-color:#465053" id="stop11675" />
              </radialGradient>
              <circle fill="url(#SVGID_4_)" cx="844.86798" cy="429.06" r="20.076" id="circle11678" style="fill:#000000" />
              <radialGradient id="SVGID_5_" cx="854.78229" cy="636.67291" r="30.6422" gradientTransform="translate(0,58.2075)" gradientUnits="userSpaceOnUse">
                <stop offset="0" style="stop-color:#E5E2DF" id="stop11680" />
                <stop offset="0" style="stop-color:#F1EFEE" id="stop11682" />
                <stop offset="0" style="stop-color:#FFFFFF" id="stop11684" />
                <stop offset="0.1259" style="stop-color:#F0F0F1" id="stop11686" />
                <stop offset="0.3664" style="stop-color:#C9CACB" id="stop11688" />
                <stop offset="0.5225" style="stop-color:#ADAEB0" id="stop11690" />
                <stop offset="0.6029" style="stop-color:#A3A5A7" id="stop11692" />
                <stop offset="0.7382" style="stop-color:#898D90" id="stop11694" />
                <stop offset="0.9108" style="stop-color:#5F6769" id="stop11696" />
                <stop offset="1" style="stop-color:#465053" id="stop11698" />
              </radialGradient>
              <circle fill="url(#SVGID_5_)" cx="844.86798" cy="701.32501" r="20.076" id="circle11701" style="fill:#000000" />
            </g>
          </g>
          <g id="g11800">
            <g id="g11750">
              <path fill="#066c46" d="m 1475.012,1010.504 v 303.192 c 0,8.664 -7.002,15.699 -15.666,15.74 l -1218.04,5.753 c -3.851,0.018 -7.574,-1.376 -10.466,-3.918 L 55.129,1176.812 c -7.131,-6.268 -7.131,-17.375 0,-23.643 L 230.872,998.682 c 2.873,-2.525 6.567,-3.918 10.392,-3.918 h 1218.008 c 8.693,0 15.74,7.047 15.74,15.74 z" id="path11707" style="fill:#ffffff" />
              <linearGradient id="SVGID_6_" gradientUnits="userSpaceOnUse" x1="-628.01642" y1="1106.7689" x2="839.03967" y2="1106.7689" gradientTransform="matrix(-1,0,0,1,867.9077,58.2075)">
                <stop offset="0" style="stop-color:#E5E2DF" id="stop11709" />
                <stop offset="0" style="stop-color:#D6D7D7" id="stop11711" />
                <stop offset="0" style="stop-color:#D1D3D4" id="stop11713" />
                <stop offset="0.0676" style="stop-color:#EDEEEE" id="stop11715" />
                <stop offset="0.1067" style="stop-color:#FFFFFF" id="stop11717" />
                <stop offset="0.1185" style="stop-color:#F2F2F2" id="stop11719" />
                <stop offset="0.1574" style="stop-color:#CBCCCD" id="stop11721" />
                <stop offset="0.1931" style="stop-color:#AEB0B2" id="stop11723" />
                <stop offset="0.2242" style="stop-color:#9D9FA2" id="stop11725" />
                <stop offset="0.2472" style="stop-color:#97999C" id="stop11727" />
                <stop offset="0.5922" style="stop-color:#D1D3D4" id="stop11729" />
                <stop offset="0.6818" style="stop-color:#DBDCDD" id="stop11731" />
                <stop offset="0.8321" style="stop-color:#F5F5F5" id="stop11733" />
                <stop offset="0.882" style="stop-color:#FFFFFF" id="stop11735" />
                <stop offset="0.8972" style="stop-color:#EAEBEC" id="stop11737" />
                <stop offset="0.9214" style="stop-color:#D0D2D3" id="stop11739" />
                <stop offset="0.9463" style="stop-color:#BEBFC2" id="stop11741" />
                <stop offset="0.972" style="stop-color:#B3B5B7" id="stop11743" />
                <stop offset="1" style="stop-color:#AFB1B4" id="stop11745" />
              </linearGradient>
              <path fill="url(#SVGID_6_)" d="m 241.264,994.764 h 1218.008 c 8.693,0 15.74,7.047 15.74,15.74 v 303.192 c 0,8.664 -7.002,15.699 -15.666,15.74 l -1218.04,5.753 c -0.025,0 -0.049,0 -0.074,0 -3.824,0 -7.519,-1.392 -10.392,-3.918 L 55.129,1176.812 c -7.131,-6.268 -7.131,-17.375 0,-23.643 L 230.872,998.682 c 2.873,-2.525 6.567,-3.918 10.392,-3.918 m 0,-20.912 c -8.911,0 -17.505,3.24 -24.198,9.124 L 41.322,1137.462 c -7.914,6.957 -12.454,16.991 -12.454,27.528 0,10.537 4.539,20.571 12.454,27.528 l 175.711,154.459 c 6.693,5.884 15.287,9.124 24.199,9.124 h 0.173 l 1218.04,-5.753 c 20.115,-0.095 36.479,-16.537 36.479,-36.652 v -303.192 c 0,-20.21 -16.442,-36.652 -36.652,-36.652 z" id="path11748" style="fill:#000000" />
            </g>
            <g id="g11798">
              <radialGradient id="SVGID_7_" cx="21.396999" cy="962.37408" r="30.6422" gradientTransform="matrix(-1,0,0,1,867.9077,58.2075)" gradientUnits="userSpaceOnUse">
                <stop offset="0" style="stop-color:#E5E2DF" id="stop11752" />
                <stop offset="0" style="stop-color:#F1EFEE" id="stop11754" />
                <stop offset="0" style="stop-color:#FFFFFF" id="stop11756" />
                <stop offset="0.1259" style="stop-color:#F0F0F1" id="stop11758" />
                <stop offset="0.3664" style="stop-color:#C9CACB" id="stop11760" />
                <stop offset="0.5225" style="stop-color:#ADAEB0" id="stop11762" />
                <stop offset="0.6029" style="stop-color:#A3A5A7" id="stop11764" />
                <stop offset="0.7382" style="stop-color:#898D90" id="stop11766" />
                <stop offset="0.9108" style="stop-color:#5F6769" id="stop11768" />
                <stop offset="1" style="stop-color:#465053" id="stop11770" />
              </radialGradient>
              <circle fill="url(#SVGID_7_)" cx="856.42499" cy="1027.026" r="20.076" id="circle11773" style="fill:#000000" />
              <radialGradient id="SVGID_8_" cx="21.396999" cy="1234.639" r="30.6422" gradientTransform="matrix(-1,0,0,1,867.9077,58.2075)" gradientUnits="userSpaceOnUse">
                <stop offset="0" style="stop-color:#E5E2DF" id="stop11775" />
                <stop offset="0" style="stop-color:#F1EFEE" id="stop11777" />
                <stop offset="0" style="stop-color:#FFFFFF" id="stop11779" />
                <stop offset="0.1259" style="stop-color:#F0F0F1" id="stop11781" />
                <stop offset="0.3664" style="stop-color:#C9CACB" id="stop11783" />
                <stop offset="0.5225" style="stop-color:#ADAEB0" id="stop11785" />
                <stop offset="0.6029" style="stop-color:#A3A5A7" id="stop11787" />
                <stop offset="0.7382" style="stop-color:#898D90" id="stop11789" />
                <stop offset="0.9108" style="stop-color:#5F6769" id="stop11791" />
                <stop offset="1" style="stop-color:#465053" id="stop11793" />
              </radialGradient>
              <circle fill="url(#SVGID_8_)" cx="856.42499" cy="1299.291" r="20.076" id="circle11796" style="fill:#000000" />
            </g>
          </g>
        </g>
        <path id="path44202" style="font-size:31.081px;line-height:1.25;font-family:Colaborate-Medium;-inkscape-font-specification:Colaborate-Medium;letter-spacing:0px;word-spacing:0px;baseline-shift:baseline;vector-effect:none;stroke-width:1.21448;stop-color:#000000" d="M 777.30859 654.63477 L 777.30859 676.63672 L 784.48438 676.63672 C 791.72752 676.63672 794.99023 673.64406 794.99023 665.55078 C 794.99023 657.52551 791.5915 654.63477 784.48438 654.63477 L 777.30859 654.63477 z M 799.17383 654.63477 L 799.17383 657.96875 L 803.2207 657.96875 L 803.2207 654.63477 L 799.17383 654.63477 z M 865.72266 654.63477 L 865.72266 657.96875 L 869.76953 657.96875 L 869.76953 654.63477 L 865.72266 654.63477 z M 855.17969 656.91406 L 855.17969 661.0625 L 852.5957 661.0625 L 852.5957 664.05469 L 855.17969 664.05469 L 855.17969 672.55664 C 855.17969 676.53526 858.44415 678.98339 862.21875 679.93555 L 863.24023 676.63672 C 860.65582 676.02462 859.02344 675.07168 859.02344 672.86133 L 859.02344 664.05469 L 862.66211 664.05469 L 862.66211 661.0625 L 859.02344 661.0625 L 859.02344 656.91406 L 855.17969 656.91406 z M 781.59375 657.93359 L 784.48438 657.93359 C 787.85091 657.93359 790.57031 658.64885 790.57031 665.58594 C 790.57031 672.01295 788.1896 673.33789 784.78906 673.33789 L 781.59375 673.33789 L 781.59375 657.93359 z M 815.25781 660.62109 C 813.59155 660.62109 811.92495 662.76189 811.38086 663.74805 L 810.76953 661.0957 L 807.23242 661.0957 C 807.33439 661.87782 807.64063 663.03422 807.64062 664.56445 L 807.64062 676.63672 L 811.48438 676.63672 L 811.48438 667.35352 C 811.85843 666.43538 812.84419 663.57812 814.64648 663.57812 C 815.49661 663.57812 816.31253 664.08918 816.89062 664.53125 L 818.2168 661.36914 C 817.29865 660.89306 816.55002 660.62109 815.25781 660.62109 z M 881.0918 660.62109 C 875.51491 660.62109 873.4082 664.46258 873.4082 668.78125 C 873.4082 673.26997 875.4809 677.11328 881.0918 677.11328 C 886.66867 677.11328 888.74414 673.23596 888.74414 668.78125 C 888.74414 664.25854 886.73668 660.62109 881.0918 660.62109 z M 900.33984 660.62109 C 898.16349 660.62109 896.83751 662.45661 896.19141 663.13672 L 895.57812 661.0957 L 892.04297 661.0957 C 892.179 662.18387 892.45117 663.10232 892.45117 664.39453 L 892.45117 676.63672 L 896.29297 676.63672 L 896.29297 666.50391 C 897.00708 665.04167 898.0951 663.57812 899.69336 663.57812 C 901.97171 663.57812 902.10742 665.14359 902.10742 666.67383 L 902.10742 676.63672 L 905.95117 676.63672 L 905.95117 666.84375 C 905.95117 663.27318 904.89656 660.62109 900.33984 660.62109 z M 827.5 660.6543 C 821.75309 660.6543 820.12109 665.41497 820.12109 669.01953 C 820.12109 673.33822 822.60392 677.07812 827.63672 677.07812 C 829.77905 677.07812 832.159 676.70561 834.0293 675.85547 L 832.77148 672.89648 C 831.13922 673.71261 829.37043 674.22266 827.9082 674.22266 C 825.76587 674.22266 824.47402 672.82809 824.16797 670.3457 L 834.8457 670.3457 C 834.8457 663.85068 832.90686 660.6543 827.5 660.6543 z M 845.625 660.6543 C 840.35417 660.6543 837.83789 663.95353 837.83789 668.98633 C 837.83789 673.74708 840.42263 677.07812 845.52344 677.07812 C 846.71363 677.07812 849.80786 676.56832 850.99805 675.99023 L 849.67188 672.82812 C 848.34566 673.50823 846.61081 674.12109 845.55664 674.12109 C 843.24427 674.12109 841.7832 672.62491 841.7832 668.98633 C 841.7832 665.0077 843.00739 663.61328 845.5918 663.61328 C 846.74799 663.61328 848.37897 664.3262 849.53516 664.9043 L 850.86133 661.74219 C 849.73914 661.30011 847.01922 660.6543 845.625 660.6543 z M 799.27539 661.0957 L 799.27539 676.63672 L 803.11914 676.63672 L 803.11914 661.0957 L 799.27539 661.0957 z M 865.82422 661.0957 L 865.82422 676.63672 L 869.66602 676.63672 L 869.66602 661.0957 L 865.82422 661.0957 z M 881.0918 663.57812 C 883.6762 663.57812 884.79883 664.97265 884.79883 668.78125 C 884.79883 672.55586 883.47216 674.1543 881.0918 674.1543 C 878.50738 674.1543 877.35156 672.28381 877.35156 668.78125 C 877.35156 664.97265 878.6434 663.57813 881.0918 663.57812 z M 827.4668 663.61328 C 829.4731 663.61328 830.96865 664.63333 831.13867 667.5918 L 824.16797 667.5918 C 824.30399 664.36128 826.20859 663.61328 827.4668 663.61328 z " transform="matrix(0.91400257,0,0,0.91400257,-333.72549,-470.46229)" />
      </g>
      <g id="g38533" transform="matrix(0.28947767,0,0,0.28947767,60.756339,115.91617)">
        <path id="path3201" style="color:#000000;text-indent:0;text-transform:none;stroke-width:4.32233" d="m -7.5270667,-329.77638 v 50.7873 l -2.9715903,3.78202 c 0,0.098 -0.94587,-3.10668 -0.94587,-3.10668 -1.07167,-3.70149 -4.60032,-7.29386 -9.86014,-7.29386 h -9.85997 c -4.67548,0 -8.42385,4.04946 -9.18496,6.61835 l -4.72775,17.42421 h 6.34865 l 3.91697,-14.04764 h 1.4866 l -0.67469,14.04764 h 16.34372 l -0.94589,-14.04764 h 1.62058 l 2.16113,6.88888 c 1.01939,2.89856 3.56542,3.55103 5.5377003,1.07983 l 7.83639,-9.45288 c 0.26465,-0.34469 0.42638,-0.60607 0.54072996,-0.94587 H 77.843002 v -51.73399 H -7.5229867 Z m 1.89093,1.62056 H 76.081942 v 48.35825 H -0.90741674 c -0.25484996,-0.74331 -0.77433996,-1.27587 -1.48660996,-1.62057 l 17.5594697,-18.50484 0.67469,0.67469 -17.0190597,17.96443 H 74.327742 v -45.25041 H -4.0144267 v 44.71018 c -0.58648,0.049 -1.08964,0.33816 -1.62056,0.81027 v -47.13922 z m -20.3961103,26.47423 c -4.00208,0 -7.29403,3.15699 -7.29403,7.15858 0,4.00176 3.29195,7.29403 7.29403,7.29403 4.00143,0 7.1586,-3.29227 7.1586,-7.29403 0,-4.00175 -3.15733,-7.15858 -7.1586,-7.15858 z m -20.66599,41.73727 v 3.37689 h 39.0359003 v -3.37689 z m 0,4.05224 v 1.75583 h 32.82302 v 25.52867 h -32.82302 v 2.02603 h 34.84889 v -29.31053 z m 0,2.02603 v 24.98827 h 32.28261 v -24.98827 z" />
        <path id="path44367" style="font-size:31.081px;line-height:1.25;font-family:Colaborate-Medium;-inkscape-font-specification:Colaborate-Medium;letter-spacing:0px;word-spacing:0px;baseline-shift:baseline;vector-effect:none;stroke-width:1.21448;stop-color:#000000" d="M 265.22266 220.23438 L 265.22266 223.56641 L 271.27734 223.56641 L 271.27734 242.23438 L 275.56055 242.23438 L 275.56055 223.56641 L 281.61328 223.56641 L 281.61328 220.23438 L 265.22266 220.23438 z M 312.62695 220.23438 L 312.62695 223.56641 L 316.67383 223.56641 L 316.67383 220.23438 L 312.62695 220.23438 z M 339.01562 220.23438 L 339.01562 223.56641 L 343.0625 223.56641 L 343.0625 220.23438 L 339.01562 220.23438 z M 380.80859 226.15039 C 379.17634 226.21844 376.21718 226.45658 374.95898 226.55859 C 374.10885 226.38857 373.49603 226.25195 372.33984 226.25195 C 366.21888 226.25195 365.30078 230.33247 365.30078 232.13477 C 365.30078 234.2431 366.45717 235.60516 366.86523 236.11523 C 365.94709 236.79534 365.0625 237.71181 365.0625 238.83398 C 365.0625 240.09219 365.67494 241.11251 367.03516 241.72461 C 366.18502 242.06466 364.51953 242.8473 364.51953 244.68359 C 364.51953 247.302 366.4243 249.07031 372.61328 249.07031 C 376.5239 249.07031 380.57031 247.98257 380.57031 244.58203 C 380.57031 242.03163 379.1421 240.53466 372.95312 240.05859 C 369.07651 239.75254 368.29297 239.48019 368.29297 238.66406 C 368.29297 238.08597 368.63375 237.74699 369.00781 237.54297 C 369.82394 237.91703 371.83011 238.12109 372.4082 238.12109 C 377.88307 238.12109 379.48242 234.82234 379.48242 232.16992 C 379.48242 230.70768 378.53007 229.34646 377.91797 228.73438 L 379.82227 228.73438 L 380.80859 226.15039 z M 289.29883 226.21875 C 287.63256 226.21875 285.96596 228.36151 285.42188 229.34766 L 284.81055 226.69531 L 281.27344 226.69531 C 281.37545 227.47743 281.68164 228.63382 281.68164 230.16406 L 281.68164 242.23438 L 285.52539 242.23438 L 285.52539 232.95117 C 285.89945 232.03302 286.88521 229.17773 288.6875 229.17773 C 289.53763 229.17773 290.35355 229.68683 290.93164 230.12891 L 292.25781 226.9668 C 291.33967 226.49073 290.59103 226.21875 289.29883 226.21875 z M 328.98438 226.21875 C 326.80803 226.21875 325.48009 228.05427 324.83398 228.73438 L 324.22266 226.69531 L 320.68555 226.69531 C 320.82157 227.78348 321.09375 228.70195 321.09375 229.99414 L 321.09375 242.23438 L 324.9375 242.23438 L 324.9375 232.10156 C 325.65161 230.63932 326.73964 229.17773 328.33789 229.17773 C 330.61625 229.17773 330.75195 230.74125 330.75195 232.27148 L 330.75195 242.23438 L 334.59375 242.23438 L 334.59375 232.44141 C 334.59375 228.87084 333.5411 226.21875 328.98438 226.21875 z M 355.37109 226.21875 C 353.19475 226.21875 351.86876 228.05427 351.22266 228.73438 L 350.61133 226.69531 L 347.07422 226.69531 C 347.21024 227.78348 347.48242 228.70195 347.48242 229.99414 L 347.48242 242.23438 L 351.32422 242.23438 L 351.32422 232.10156 C 352.03833 230.63932 353.12831 229.17773 354.72656 229.17773 C 357.00492 229.17773 357.14063 230.74125 357.14062 232.27148 L 357.14062 242.23438 L 360.98242 242.23438 L 360.98242 232.44141 C 360.98242 228.87084 359.92781 226.21875 355.37109 226.21875 z M 301.98242 226.25195 C 299.53403 226.25195 296.84777 226.66009 294.77344 227.4082 L 296.09961 230.57227 C 297.59585 229.85815 299.63696 229.21094 301.7793 229.21094 C 303.75161 229.21094 303.99023 230.53833 303.99023 231.72852 L 303.99023 232.47656 L 302.69727 232.47656 C 296.06622 232.47656 294.16211 234.9918 294.16211 238.1543 C 294.16211 241.11277 296.27022 242.67773 300.21484 242.67773 C 301.91511 242.67773 303.41158 241.488 304.26172 240.67188 L 304.83984 242.23438 L 308.47852 242.23438 C 308.27448 240.5001 307.86719 238.69881 307.86719 237.47461 L 307.86719 231.2168 C 307.86719 227.81626 305.41696 226.25195 301.98242 226.25195 z M 312.72852 226.69531 L 312.72852 242.23438 L 316.57227 242.23438 L 316.57227 226.69531 L 312.72852 226.69531 z M 339.11719 226.69531 L 339.11719 242.23438 L 342.95898 242.23438 L 342.95898 226.69531 L 339.11719 226.69531 z M 372.4082 229.14258 C 374.51654 229.14258 375.53711 230.26608 375.53711 232.06836 C 375.53711 233.5306 374.82374 235.23047 372.44336 235.23047 C 370.64107 235.23047 369.24609 234.41347 369.24609 232.20312 C 369.24609 229.78874 370.84396 229.14258 372.4082 229.14258 z M 303.17383 235.06055 L 304.02344 235.06055 L 304.02344 238.12109 C 303.41134 238.97123 302.35791 239.71875 300.92969 239.71875 C 299.50146 239.71875 298.17383 239.31059 298.17383 237.98438 C 298.17383 236.11407 299.50125 235.06055 303.17383 235.06055 z M 369.58594 243.01758 C 375.19682 243.1536 376.625 243.93593 376.625 244.58203 C 376.625 245.84023 375.67376 246.24805 372.61328 246.24805 C 370.50495 246.24805 368.46289 245.66905 368.46289 244.54688 C 368.46289 243.93478 368.87182 243.35763 369.58594 243.01758 z " transform="matrix(0.91400257,0,0,0.91400257,-279.66476,-414.93351)" />
      </g>
      <path id="path44057" style="font-size:18.2542px;line-height:1.25;font-family:'Bebas Neue';-inkscape-font-specification:'Bebas Neue';letter-spacing:0px;word-spacing:0px;stroke-width:2.464" d="M 558.69727 354.27148 C 551.24608 354.27148 547.17578 358.68693 547.17578 366.41406 L 547.17578 391.52734 C 547.17578 399.25449 551.24608 403.66992 558.69727 403.66992 C 566.14842 403.66992 570.21875 399.25449 570.21875 391.52734 L 570.21875 366.41406 C 570.21875 358.68693 566.14842 354.27148 558.69727 354.27148 z M 656.11328 354.27148 C 648.66213 354.27148 644.79883 358.68693 644.79883 366.41406 L 644.79883 391.52734 C 644.79883 399.25449 648.66213 403.66992 656.11328 403.66992 C 663.56443 403.66992 667.42773 399.25449 667.42773 391.52734 L 667.42773 376.21094 L 656.80469 376.21094 L 656.80469 383.10938 L 660.25391 383.10938 L 660.25391 392.00977 C 660.25391 395.45939 658.73505 396.70117 656.32031 396.70117 C 653.90561 396.70117 652.38867 395.45939 652.38867 392.00977 L 652.38867 365.93164 C 652.38867 362.48203 653.90561 361.16992 656.32031 361.16992 C 658.73505 361.16992 660.25391 362.48203 660.25391 365.93164 L 660.25391 371.10547 L 667.42773 371.10547 L 667.42773 366.41406 C 667.42773 358.68693 663.56443 354.27148 656.11328 354.27148 z M 430.7168 354.82422 L 430.7168 403.11719 L 437.33984 403.11719 L 437.33984 368.9668 L 442.99805 403.11719 L 450.17188 403.11719 L 455.41602 368.48438 L 455.41602 403.11719 L 462.5918 403.11719 L 462.5918 354.82422 L 452.03516 354.82422 L 446.86133 389.11328 L 441.27344 354.82422 L 430.7168 354.82422 z M 468.11133 354.82422 L 468.11133 403.11719 L 488.80859 403.11719 L 488.80859 396.21875 L 475.69922 396.21875 L 475.69922 382.07617 L 486.11719 382.07617 L 486.11719 375.17578 L 475.69922 375.17578 L 475.69922 361.72266 L 488.80859 361.72266 L 488.80859 354.82422 L 468.11133 354.82422 z M 493.43164 354.82422 L 493.43164 403.11719 L 500.26172 403.11719 L 500.26172 368.13867 L 509.71289 403.11719 L 517.50977 403.11719 L 517.50977 354.82422 L 510.74805 354.82422 L 510.74805 383.73047 L 502.95117 354.82422 L 493.43164 354.82422 z M 520.88867 354.82422 L 520.88867 361.72266 L 528.82422 361.72266 L 528.82422 403.11719 L 536.41211 403.11719 L 536.41211 361.72266 L 544.34766 361.72266 L 544.34766 354.82422 L 520.88867 354.82422 z M 575.11719 354.82422 L 575.11719 403.11719 L 582.70703 403.11719 L 582.70703 383.45508 L 585.32812 383.45508 C 588.77774 383.45508 590.29492 385.11121 590.29492 389.5957 L 590.29492 397.18555 C 590.29492 401.11811 590.57232 401.87535 590.98633 403.11719 L 598.71289 403.11719 C 597.954 401.32339 597.88477 399.59963 597.88477 397.25391 L 597.88477 389.80273 C 597.88477 384.7663 596.64226 381.11026 592.84766 379.52344 C 596.22829 377.93661 597.81641 374.69401 597.81641 369.72656 L 597.81641 365.93164 C 597.81641 358.48048 594.43543 354.82422 586.57031 354.82422 L 575.11719 354.82422 z M 602.85156 354.82422 L 602.85156 403.11719 L 610.44141 403.11719 L 610.44141 354.82422 L 602.85156 354.82422 z M 615.89062 354.82422 L 615.89062 403.11719 L 622.72266 403.11719 L 622.72266 368.13867 L 632.17383 403.11719 L 639.9707 403.11719 L 639.9707 354.82422 L 633.20898 354.82422 L 633.20898 383.73047 L 625.41211 354.82422 L 615.89062 354.82422 z M 558.69727 361.16992 C 561.11201 361.16992 562.62891 362.48203 562.62891 365.93164 L 562.62891 392.00977 C 562.62891 395.45939 561.11201 396.77148 558.69727 396.77148 C 556.28253 396.77148 554.76367 395.45939 554.76367 392.00977 L 554.76367 365.93164 C 554.76367 362.48203 556.28253 361.16992 558.69727 361.16992 z M 582.70703 361.72266 L 586.36328 361.72266 C 589.05396 361.72266 590.22656 363.23984 590.22656 366.68945 L 590.22656 371.45117 C 590.22656 375.31474 588.5025 376.55664 585.67383 376.55664 L 582.70703 376.55664 L 582.70703 361.72266 z " transform="matrix(0.26458333,0,0,0.26458333,-20.200365,-4.1978167)" />
      <g id="g38701" transform="matrix(0.28947767,0,0,0.28947767,86.461943,125.37587)">
        <path id="path44161" style="font-size:31.081px;line-height:1.25;font-family:Colaborate-Medium;-inkscape-font-specification:Colaborate-Medium;letter-spacing:0px;word-spacing:0px;baseline-shift:baseline;vector-effect:none;stroke-width:1.21448;stop-color:#000000" d="M 891.46094 411.99414 C 887.4143 411.99414 882.92578 413.69419 882.92578 418.04688 C 882.92578 422.0255 885.91929 423.4872 888.84375 424.60938 C 891.5982 425.66354 894.25 426.4466 894.25 428.79297 C 894.25 431.27536 892.31107 431.78516 889.55664 431.78516 C 887.75435 431.78516 885.88421 431.03592 884.25195 430.42383 L 882.92578 434.0293 C 884.79608 434.53938 887.61914 435.08398 889.52344 435.08398 C 894.04616 435.08398 898.60352 434.02945 898.60352 428.72461 C 898.60352 423.89585 894.86172 422.43272 891.69922 421.31055 C 889.35285 420.46041 887.2793 419.81515 887.2793 418.04688 C 887.2793 416.75467 888.16286 415.29102 891.35938 415.29102 C 893.46771 415.29102 895.06603 416.0067 896.32422 416.55078 L 897.65039 412.94531 C 895.84811 412.33322 892.95717 411.99414 891.46094 411.99414 z M 976.16992 418.41992 C 972.97342 418.41992 969.57227 419.30433 969.57227 423.04492 C 969.57227 426.6835 972.53093 427.6355 974.94531 428.34961 C 976.57757 428.82568 977.9707 429.23455 977.9707 430.2207 C 977.9707 431.13885 977.66553 431.95508 975.28516 431.95508 C 973.48286 431.95508 972.32607 431.30821 970.5918 430.66211 L 969.26562 433.82422 C 970.96589 434.43632 973.4145 434.91211 975.2168 434.91211 C 978.51531 434.91211 981.91602 433.82412 981.91602 430.18555 C 981.91602 426.54697 978.82063 425.59577 976.40625 424.84766 C 974.80799 424.37158 973.51758 423.96352 973.51758 422.94336 C 973.51758 421.82118 974.46885 421.37891 976.20312 421.37891 C 977.73337 421.37891 978.6174 421.85425 980.18164 422.56836 L 981.50781 419.40625 C 979.36548 418.72614 977.59816 418.41992 976.16992 418.41992 z M 991.50586 418.41992 C 988.30936 418.41992 984.9082 419.30433 984.9082 423.04492 C 984.9082 426.6835 987.86687 427.6355 990.28125 428.34961 C 991.9135 428.82568 993.30859 429.23455 993.30859 430.2207 C 993.30859 431.13885 993.00147 431.95508 990.62109 431.95508 C 988.8188 431.95508 987.66201 431.30821 985.92773 430.66211 L 984.60156 433.82422 C 986.30183 434.43632 988.75045 434.91211 990.55273 434.91211 C 993.85126 434.91211 997.25195 433.82412 997.25195 430.18555 C 997.25195 426.54697 994.15852 425.59577 991.74414 424.84766 C 990.14588 424.37158 988.85352 423.96352 988.85352 422.94336 C 988.85352 421.82118 989.80479 421.37891 991.53906 421.37891 C 993.06931 421.37891 993.95333 421.85425 995.51758 422.56836 L 996.84375 419.40625 C 994.70141 418.72614 992.93408 418.41992 991.50586 418.41992 z M 927.94922 418.45508 C 922.67838 418.45508 920.16211 421.75236 920.16211 426.78516 C 920.16211 431.54591 922.74685 434.87891 927.84766 434.87891 C 929.03784 434.87891 932.13207 434.36911 933.32227 433.79102 L 931.99609 430.62891 C 930.66988 431.30901 928.93502 431.91992 927.88086 431.91992 C 925.56849 431.91992 924.10742 430.42373 924.10742 426.78516 C 924.10742 422.80653 925.3316 421.41211 927.91602 421.41211 C 929.07219 421.41211 930.7032 422.12699 931.85938 422.70508 L 933.18555 419.54297 C 932.06337 419.1009 929.34344 418.45508 927.94922 418.45508 z M 943.72852 418.45508 C 938.45768 418.45508 935.94141 421.75236 935.94141 426.78516 C 935.94141 431.54591 938.52419 434.87891 943.625 434.87891 C 944.81519 434.87891 947.91138 434.36911 949.10156 433.79102 L 947.77539 430.62891 C 946.44919 431.30901 944.71432 431.91992 943.66016 431.91992 C 941.3478 431.91992 939.88477 430.42373 939.88477 426.78516 C 939.88477 422.80653 941.10896 421.41211 943.69336 421.41211 C 944.84955 421.41211 946.48249 422.12699 947.63867 422.70508 L 948.96484 419.54297 C 947.84267 419.1009 945.12273 418.45508 943.72852 418.45508 z M 959.09766 418.45508 C 953.35075 418.45508 951.71875 423.21574 951.71875 426.82031 C 951.71875 431.139 954.20159 434.87891 959.23438 434.87891 C 961.37672 434.87891 963.75666 434.50443 965.62695 433.6543 L 964.36914 430.69727 C 962.73688 431.51339 960.9681 432.02344 959.50586 432.02344 C 957.36352 432.02344 956.07167 430.62888 955.76562 428.14648 L 966.44336 428.14648 C 966.44336 421.65146 964.50451 418.45508 959.09766 418.45508 z M 903.19336 418.89648 L 903.19336 428.68945 C 903.19336 432.26002 904.38445 434.91211 908.70312 434.91211 C 910.87948 434.91211 912.06874 433.07659 912.71484 432.39648 L 913.32812 434.4375 L 916.86328 434.4375 C 916.72726 433.34933 916.45508 432.43088 916.45508 431.13867 L 916.45508 418.89648 L 912.61328 418.89648 L 912.61328 429.0293 C 911.89917 430.49153 910.94591 431.95508 909.34766 431.95508 C 907.20532 431.95508 907.03711 430.35561 907.03711 428.85938 L 907.03711 418.89648 L 903.19336 418.89648 z M 959.06445 421.41211 C 961.07077 421.41211 962.5663 422.43216 962.73633 425.39062 L 955.76562 425.39062 C 955.90165 422.16011 957.80625 421.41211 959.06445 421.41211 z " transform="matrix(0.91400257,0,0,0.91400257,-368.46472,-447.61203)" />
        <path d="m 326.27802,126.07874 c 0.25906,-2.95859 1.02717,-5.90693 0.41706,-8.88449 -0.30194,-1.47339 -0.37922,-3.14378 -1.94688,-4.04276 -1.52254,-0.8732 -2.70505,-2.3373 -4.54199,-2.65882 -1.15327,-0.20183 -1.58338,-1.63447 -2.84266,-1.626 -3.24877,0.0218 -6.48542,0.0657 -9.69291,-0.69953 -2.80021,-0.66808 -4.03407,0.66646 -3.9099,3.79436 0.014,0.35314 0.0325,0.69027 -0.39852,0.7933 -0.86151,0.2058 -1.55437,0.77865 -2.49613,0.89911 -1.42595,0.18235 -2.5473,2.36569 -1.93365,3.67924 0.88138,1.88683 1.73415,3.80429 2.991,5.48844 1.95141,2.61477 4.42513,4.73586 6.98135,6.67951 2.647,2.01274 2.88483,4.68659 2.80985,7.54497 -0.0919,3.50533 -0.80595,6.9302 -1.50656,10.35769 -0.95705,4.68183 -1.59539,9.43256 -3.0969,13.99334 -1.60086,4.86288 -3.25067,9.70605 -5.03452,14.50853 -1.05579,2.84242 -2.75436,4.28101 -5.79196,4.38656 -2.31148,0.0802 -4.3706,-1.03474 -6.64332,-1.13657 -0.61989,-0.0278 -0.89911,0.55041 -1.41994,0.36861 -1.2165,-0.42455 -2.42919,-0.86079 -3.63834,-1.30585 -0.88095,-0.3243 -1.89582,-0.42346 -2.62562,-0.0134 -1.29889,0.7297 -2.54153,0.67128 -3.74274,0.116 -0.60735,-0.28073 -1.13448,-0.23464 -1.57422,-0.0325 -1.43243,0.65844 -2.7863,0.89328 -4.17401,-0.0853 -0.82735,-0.58341 -1.82018,-0.41471 -2.61083,-0.0878 -0.41037,0.16965 -0.55327,0.0968 -0.88387,0.004 -1.52331,-0.42773 -3.02953,-0.83754 -4.66077,-0.85466 -1.72024,-0.018 -3.4209,-0.44469 -4.38946,-2.14985 -0.38957,-0.68574 -0.87934,-1.07463 -1.72297,-0.89032 -0.25283,0.0552 -0.51374,0.0241 -0.82227,-0.10395 -1.21571,-0.50438 -2.54675,-0.8571 -3.62826,0.20277 -0.56247,0.55126 -0.9035,0.44294 -1.36636,0.0374 -0.55216,-0.48384 -1.0456,-0.55218 -1.52458,0.11756 -0.77819,1.08823 -1.72712,1.16572 -3.0086,0.81102 -0.58497,-0.16189 -1.29966,-0.68267 -2.104,-0.20325 -1.35432,0.80719 -3.08705,0.75528 -4.3892,1.55604 -1.11053,0.68294 -2.77275,-0.15735 -3.46916,1.39695 -0.019,0.0424 -0.31927,0.0271 -0.42569,-0.049 -0.6645,-0.47469 -1.43002,-0.25495 -1.95289,0.0351 -0.6587,0.36531 -1.13046,0.4862 -1.81096,0.12589 -1.30496,-0.69091 -2.4211,-0.81259 -3.53518,0.62037 -1.19822,1.54106 -2.80339,1.44404 -4.40949,0.10612 -1.39293,-1.1603 -1.47561,-1.97607 -0.28565,-3.35063 1.88151,-2.17318 3.14518,-4.60589 3.64906,-7.48255 0.15848,-0.90479 -0.18415,-2.39352 1.03708,-2.66263 1.64336,-0.36203 2.40308,-1.43351 3.0524,-2.72675 1.49225,-2.97206 3.76324,-5.76331 2.71494,-9.42006 -0.35449,-1.23643 0.33679,-2.53934 -0.33399,-3.6336 -0.53501,-0.87273 -0.40872,-1.5884 -0.0477,-2.41285 0.18002,-0.41103 0.2999,-0.866 0.35282,-1.31222 0.31911,-2.69423 0.11829,-5.36835 -0.005,-8.07641 -0.20249,-4.44828 -2.51283,-8.08257 -3.79474,-12.0945 -0.71199,-2.22827 -2.54193,-3.94531 -4.20878,-5.55593 -2.18495,-2.11117 -4.90169,-3.57886 -7.37978,-5.3372 -0.52136,-0.36997 -0.98994,-0.35738 -1.6302,-0.28729 -1.13814,0.12457 -2.27203,0.78177 -3.49547,0.005 -1.00684,-0.63934 -2.37609,-0.14621 -3.44254,-0.76351 -1.38004,-0.79872 -2.91741,-0.97626 -4.32946,-0.49389 -1.50178,0.51302 -2.96236,0.70963 -4.53014,0.78586 -1.89453,0.0921 -3.49026,0.97229 -5.03061,2.22435 -2.81762,2.29042 -6.30941,3.76566 -8.16522,7.18458 -0.35825,0.65995 -1.21473,1.0288 -1.70355,1.64179 -2.62329,3.28949 -4.36033,6.95002 -4.78562,11.20825 -0.29279,2.93111 -0.13034,5.89093 -0.66956,8.80613 -0.21087,1.14009 -0.2808,2.38085 0.3523,3.40548 0.66206,1.07138 0.84478,1.84856 -0.42027,2.58961 -0.36721,0.21516 -0.51207,0.79348 -0.50681,1.34234 0.0481,5.03877 1.62251,9.51447 4.82852,13.41643 0.46757,0.56907 1.03438,0.84627 1.73206,0.81177 0.81188,-0.0401 1.14986,0.42439 1.26312,1.10448 0.72128,4.32845 3.00567,7.60584 6.63567,10.00853 1.51916,1.00552 -0.60587,1.74757 -0.24071,2.71047 0.13943,0.36764 -0.29475,0.46569 -0.54568,0.57502 -0.12137,0.0529 -0.31448,-0.0265 -0.46453,-0.0774 -0.64071,-0.21678 -1.06915,-0.67078 -1.27257,-1.29805 -0.2649,-0.81693 -1.16194,-1.36226 -1.62187,-1.20769 -1.63853,0.55068 -1.75013,-0.78251 -2.3142,-1.57559 -0.61042,-0.85831 -1.1571,-1.83582 -2.08116,-2.33498 -1.41531,-0.76449 -2.88822,-1.64613 -4.42875,-1.88558 -1.27566,-0.19825 -2.81681,-0.43378 -4.05945,0.78404 -0.5085,0.49826 -1.15729,1.38396 -2.01234,1.1752 -1.26204,-0.30808 -2.46891,-0.82944 -3.54947,-1.6397 -0.77901,-0.58415 -1.4302,-1.58253 -2.80183,-0.66122 -0.65087,0.43722 -1.71778,0.35084 -2.36916,1.09453 -0.0948,0.10826 -0.57962,0.0846 -0.64354,-0.022 -0.74645,-1.24561 -1.95935,-0.37264 -2.71413,-0.3084 -1.11127,0.0945 -2.40659,0.58888 -3.3519,1.4197 -0.63616,0.5592 -1.13027,0.5747 -1.86997,0.18291 -0.85479,-0.45279 -1.91447,-1.12115 -2.72597,-0.94824 -3.35532,0.71461 -5.65738,-1.46961 -8.31289,-2.6801 -1.00653,-0.45882 -2.24179,-1.36888 -3.07295,-0.67863 -1.1489,0.95409 -2.13974,1.3575 -3.33582,0.5611 -0.93845,-0.62481 -1.89973,-0.0932 -2.87395,-0.38169 -1.69746,-0.50268 -3.36053,-1.19282 -5.19004,-1.3368 -1.0087,-0.0793 -2.13651,-0.2489 -3.04443,-0.68033 -0.89919,-0.42733 -1.77813,-0.89569 -2.73016,-1.19806 -2.90269,-0.92191 -5.03129,-2.69629 -6.20831,-5.54844 -1.78803,-4.33274 -3.59585,-8.65735 -5.37364,-12.9943 -1.47428,-3.59661 -2.93066,-7.20069 -4.37012,-10.81143 -1.19343,-2.99363 -2.00327,-6.10108 -2.79038,-9.22377 -0.88847,-3.5247 -1.92326,-7.01233 -1.70672,-10.70171 0.10882,-1.85415 0.55864,-3.43527 2.25084,-4.69146 5.25645,-3.90202 10.253,-8.10151 13.68279,-13.840036 0.46731,-0.781897 0.52391,-1.559084 0.22038,-2.274994 -0.20508,-0.48379 -0.71636,-1.018619 -1.37245,-1.015947 -1.06217,0.0043 -2.12659,0.08125 -3.01495,0.801609 -0.66509,0.539273 -1.06456,0.342582 -1.23992,-0.47252 -0.20791,-0.966417 -0.67276,-1.645893 -1.73043,-1.937835 -0.72136,-0.199152 -1.49008,-0.308663 -2.15842,-0.563139 -3.7515,-1.428538 -7.28409,-0.0041 -10.87657,0.671698 -0.2159,0.04067 -0.41016,0.202856 -0.61132,0.314166 -1.54882,0.857277 -2.03504,2.560056 -2.98101,3.876834 -1.603929,2.232584 -3.496759,4.301674 -4.232274,7.096334 -0.550121,2.09029 -0.693314,4.23495 -1.132469,6.3358 -0.641853,3.07062 -0.981578,6.20135 -0.472573,9.29645 0.61132,3.71724 1.060345,7.4572 1.689312,11.17338 0.731388,4.3211 1.000099,8.71863 1.548474,13.07301 0.735409,5.83938 1.334188,11.70331 2.89227,17.40876 1.27722,4.67704 2.71444,9.29323 5.06481,13.56522 0.5734,1.04222 1.12382,2.16508 2.34003,2.62376 1.93638,0.7302 3.71684,1.70908 5.41753,2.89912 4.13618,2.89428 8.61113,5.18089 13.33002,6.95921 1.26299,0.47601 1.79012,1.30011 2.01462,2.51857 1.12117,6.08589 2.77254,12.04764 4.25479,18.049 0.13933,0.56399 0.52798,0.78817 1.08469,0.83283 1.09024,0.0874 2.19813,0.1052 3.26374,0.32295 4.20645,0.85918 8.68574,1.00989 11.78422,4.72623 1.32837,1.59321 3.11904,2.83977 3.74764,4.93532 0.74298,2.47685 1.37621,4.96507 1.5458,7.58455 0.52716,8.14236 1.84973,16.2325 1.71927,24.41329 -0.0225,1.41274 0.0226,2.82458 -0.005,4.23592 -0.0643,3.3319 -0.25191,6.66377 -0.22498,9.99435 0.0205,2.5327 0.38415,5.06222 0.41693,7.59547 0.0159,1.22963 0.27985,2.47145 0.11877,3.67115 -0.51773,3.85458 -1.11067,7.69379 -0.51186,11.59441 0.0347,0.22574 0.0209,0.46556 -0.01,0.69361 -0.42143,3.14774 0.41632,6.22128 0.54949,9.336 0.004,0.0864 0.067,0.19109 0.13462,0.25078 0.53112,0.46865 0.48313,1.12212 0.2794,1.6261 -0.65307,1.61546 -0.53253,3.14301 0.0966,4.7372 0.67913,1.72091 1.74016,3.28137 2.08497,5.14774 0.13202,0.71466 0.65693,1.19173 1.42904,1.3621 0.74438,0.16425 1.22163,0.67728 1.03158,1.43912 -0.95043,3.80923 -1.30503,7.78936 -2.94124,11.3992 -1.11268,2.45497 -1.03066,5.19822 -2.12272,7.62918 -0.55468,1.23476 -0.98833,2.50169 -1.40706,3.79312 -1.37372,4.23664 -3.29353,8.26328 -4.06334,12.73633 -0.72281,4.2 -2.33701,8.22828 -2.87007,12.49363 -0.24225,1.93862 -0.0383,4.06069 -0.77247,5.78664 -2.35887,5.54583 -3.28946,11.47737 -4.88993,17.21237 -1.36128,4.87791 -1.25716,10.10375 -2.40072,15.08784 -0.25948,1.13088 0.5134,1.76334 1.39928,2.27965 1.64433,0.95837 3.4118,1.63457 5.18437,2.29875 0.63331,0.23725 1.00428,0.59894 0.93046,1.33138 -0.38721,3.84376 -1.1218,7.61778 -2.4113,11.26157 -2.75953,7.79764 -3.81133,15.92733 -4.55126,24.08894 -0.58341,6.43543 -0.65823,12.91603 -1.19539,19.35683 -0.70249,8.42338 -1.265,16.86261 -2.45861,25.24215 -0.42474,2.98164 -1.49355,5.41571 -4.39013,6.70039 -2.85133,1.26471 -5.69002,2.56442 -8.58403,3.72465 -3.69139,1.48002 -7.59923,2.38482 -11.21169,4.07503 -1.53734,0.71927 -3.3259,1.12847 -4.73121,2.10158 -1.30445,0.90324 -2.44406,2.49047 -2.89425,4.00228 -0.49379,1.6583 -0.14544,3.64508 1.17782,4.75985 1.30278,1.09747 3.18511,1.13617 4.87506,0.92205 1.04465,-0.13235 2.0842,-0.342 3.13857,-0.38381 1.03187,-0.0409 2.02845,0.1659 3.06292,0.12555 1.36385,-0.0532 2.72796,-0.0997 4.09226,-0.13949 2.72862,-0.0796 5.45801,-0.13243 8.18763,-0.15843 2.70828,-0.0258 5.41682,-0.0253 8.12507,0.002 3.6096,0.0359 7.25344,0.52657 10.82452,-0.24122 0.58137,-0.12499 1.17052,-0.2898 1.65013,-0.64135 0.93432,-0.68483 1.26304,-1.92538 1.36729,-3.07912 0.31946,-3.53454 0.65833,-7.19981 1.33366,-10.69351 0.86381,-4.46838 1.58826,-8.94889 2.25522,-13.44668 0.87781,-5.91965 2.37975,-11.71146 3.88157,-17.49292 1.61126,-6.20263 4.37092,-12.0165 6.36268,-18.09499 1.30492,-3.98232 2.00525,-8.08313 2.49319,-12.22481 0.42458,-3.60439 0.58717,-7.24852 1.18624,-10.82132 0.75311,-4.49239 3.42447,-8.23344 5.33016,-12.27109 0.28308,-0.59981 0.65667,-0.571 1.1925,-0.17827 1.45812,1.06886 1.7063,0.92397 2.40038,-0.67797 1.12612,-2.59874 1.96445,-5.36977 4.16687,-7.3728 0.53533,-0.48686 1.01434,-1.04654 1.46066,-1.61843 1.60891,-2.06145 2.42708,-4.57486 3.81958,-6.75958 2.10293,-3.29943 4.398,-6.48859 6.31015,-9.89372 1.55384,-2.76712 3.13359,-5.548 4.32702,-8.51183 0.15669,-0.38899 0.39161,-0.91308 0.81595,-0.89649 0.33144,0.013 0.22545,0.57092 0.20561,0.86828 -0.26956,4.03786 -0.10356,8.04358 0.73107,12.01606 0.81917,3.8989 1.63171,7.79989 2.37559,11.7136 0.36012,1.89545 0.88741,3.74111 1.3495,5.60766 0.57912,2.33916 0.11515,4.61486 -0.9702,6.74653 -0.3855,0.75713 -0.45389,1.19825 0.42304,1.76155 2.28262,1.46634 4.64995,2.91332 5.51284,5.77035 0.12718,0.42111 0.54364,0.58756 0.94242,0.64627 2.35402,0.34684 4.71318,0.65923 7.06673,1.00954 1.93167,0.28755 3.6667,0.30398 4.62097,2.85917 1.83279,4.90765 3.14108,9.84141 3.48821,15.06688 0.33835,5.09455 0.54441,10.23718 1.82891,15.19455 2.49081,9.61289 4.41293,19.33905 6.13526,29.10689 0.46292,2.62657 0.76814,5.28172 0.89353,7.9461 0.0643,1.36609 0.0822,2.73441 0.049,4.10165 -0.0316,1.30079 -0.20116,2.59016 -0.22344,3.89173 -0.023,1.3376 0.0519,2.67695 0.22416,4.00367 0.0645,0.49681 0.0884,1.00814 0.17777,1.49971 0.0361,0.30869 0.0745,0.61714 0.11586,0.9252 0.04,0.29739 0.13385,0.6237 0.13385,0.92273 3e-5,1.62444 0.40847,3.3491 1.12652,4.8042 0.34933,0.70795 0.80087,1.41632 1.44513,1.89175 0.90702,0.66931 1.75564,0.59909 2.84657,0.59862 5.47516,-0.003 10.95031,-0.005 16.42544,-0.008 3.31737,-0.002 6.63467,-0.003 9.95204,-0.005 1.68582,-7.4e-4 3.37172,-0.006 5.05756,-0.002 1.38057,0.003 2.81612,0.33015 4.19859,0.50565 1.68995,0.21412 3.57228,0.17544 4.87508,-0.92208 1.32324,-1.11471 1.67156,-3.10155 1.1778,-4.75982 -0.45016,-1.51181 -1.5898,-3.09904 -2.89428,-4.00228 -1.40531,-0.97311 -3.19384,-1.38231 -4.7312,-2.10161 -3.61246,-1.69018 -7.52033,-2.59503 -11.21172,-4.07498 -1.83959,-0.73755 -3.63125,-1.57959 -5.48783,-2.2615 -1.8325,-0.67304 -3.66143,-1.52569 -5.02703,-2.96066 -1.58591,-1.66653 -2.38051,-3.96081 -2.63271,-6.24747 -0.41187,-3.73436 0.13933,-7.78352 0.49692,-11.51155 0.39245,-4.09162 0.62457,-8.19875 0.91567,-12.29987 0.19428,-2.7369 0.25834,-5.47695 0.29784,-8.22169 0.0306,-2.13172 -0.0568,-4.25323 -0.1483,-6.37635 -0.11753,-2.72574 -0.17082,-5.46597 -0.51528,-8.16636 -0.25765,-2.01981 -0.44638,-4.05271 -0.76377,-6.07137 -0.38214,-2.43097 -0.5148,-4.89776 -1.09453,-7.31025 -0.24442,-1.01711 -0.57279,-2.22258 0.0172,-3.11571 0.36336,-0.55012 1.35287,0.041 2.06463,0.0679 2.33627,0.0885 3.5035,-1.49043 2.85773,-3.19881 -0.80967,-2.14202 -1.09548,-4.37338 0.009,-6.55633 0.61902,-1.22314 0.98883,-2.52756 1.28471,-3.86051 0.7879,-3.54935 1.50238,-7.10967 -0.29006,-10.56655 -1.16605,-2.24867 -0.92427,-4.37264 -0.13656,-6.7196 1.20322,-3.58529 0.68916,-7.28014 -0.0335,-10.92692 -0.20709,-1.04537 -0.33816,-2.13029 0.17225,-3.13944 1.84049,-3.63935 1.17673,-7.45331 0.73784,-11.2281 -0.17881,-1.53805 -0.77843,-3.0254 -0.29237,-4.60938 0.88871,-2.89574 0.40844,-5.82216 0.0126,-8.70749 -0.26747,-1.94943 -0.5239,-3.96886 -1.71389,-5.66428 -0.44863,-0.63921 -0.47956,-1.30432 -0.42331,-2.07193 0.26149,-3.5656 0.4294,-7.13981 0.2558,-10.71465 -0.15137,-3.1161 -0.5684,-6.20265 -0.0556,-9.35135 0.31099,-1.90955 0.32374,-3.92406 -0.10562,-5.86396 -0.49327,-2.22814 -0.58783,-4.49284 -0.68763,-6.75391 -0.1673,-3.78995 -0.10414,-7.6218 -2.7546,-10.77553 -0.22291,-0.26522 -0.69789,-0.63254 -0.36452,-0.93977 0.30882,-0.28451 0.82796,-0.0872 1.16324,0.26275 0.20677,0.21569 0.42275,0.42371 0.61547,0.65133 1.70837,2.0175 3.88329,2.83107 6.48888,2.49367 2.13546,-0.27654 3.34182,-1.48219 2.76778,-2.88285 -0.35885,-0.87553 -1.08204,-1.59594 -1.58911,-2.41834 -0.45508,-0.73819 -1.80568,-1.56771 -0.9062,-2.30857 1.03365,-0.85135 0.72814,-1.6464 0.66728,-2.5305 -0.0587,-0.85373 -0.006,-1.71455 -0.57586,-2.51111 -0.62633,-0.87569 0.49305,-1.69735 0.31826,-2.58797 -0.24307,-1.23843 -0.003,-2.53251 -0.8696,-3.70467 -1.0041,-1.35802 0.77015,-2.9125 -0.0124,-4.39129 -0.0126,-0.0238 0.0607,-0.12816 0.11063,-0.14478 1.13657,-0.37824 0.84513,-1.3631 0.80285,-2.12783 -0.19698,-3.56007 -0.53549,-7.11314 -0.69003,-10.67445 -0.0733,-1.68895 -0.1356,-3.35569 -0.40767,-5.03637 -0.45141,-2.78847 -0.82341,-5.60314 -0.9878,-8.42085 -0.1551,-2.65858 -0.12589,-5.34423 0.0614,-8.0011 0.13949,-1.97927 -0.47966,-3.87985 -0.19891,-5.87637 0.65447,-4.6536 -0.3142,-9.28489 -0.45056,-13.93132 -0.0263,-0.89461 0.0731,-1.62147 0.58695,-2.41789 0.68712,-1.06503 1.19856,-2.23608 1.59205,-3.4975 0.73559,-2.35808 1.24664,-4.96242 4.20174,-5.87603 1.62819,-0.50337 3.21315,-2.06936 4.6985,-1.92556 3.39431,0.32859 6.96359,0.12803 10.14254,1.8677 0.55041,0.30122 1.57789,0.83084 1.9441,-0.0371 0.89514,-2.1214 2.63351,-3.57936 3.93785,-5.3635 2.00337,-2.74047 3.5964,-5.65258 4.7738,-8.81168 0.29429,-0.78949 0.70815,-1.24373 1.62549,-1.34517 7.29845,-0.80674 14.61736,-1.52966 21.61291,-3.97743 2.24605,-0.78599 4.56372,-1.4451 6.68219,-2.49727 2.40003,-1.19197 3.14031,-3.74105 3.79854,-6.08644 1.79697,-6.40311 3.33261,-12.86977 3.86501,-19.5324 0.38401,-4.80539 0.46974,-9.61977 0.56734,-14.43535 0.0717,-3.53203 0.0501,-7.07281 0.30536,-10.59254 0.41431,-5.7137 0.89628,-11.41251 0.21873,-17.13928 -0.11126,-0.93898 -0.0127,-1.91244 0.0705,-2.86277 z" id="path28844" style="stroke-width:0.264583" clip-path="url(#clipPath28876)" transform="matrix(0.50328279,0,0,0.50328279,384.70287,-221.65255)" />
      </g>
      <g id="g38575" transform="matrix(0.28947767,0,0,0.28947767,67.600459,133.26131)">
        <g id="g5353" transform="matrix(0.2775517,0,0,0.2775517,157.64132,-20.712685)">
          <path id="rect4735" d="m 321.38,347.26 c -0.89751,0.002 -97.845,0.41211 -97.845,102.42 0,65.668 44.566,90.008 41.455,95.711 l 9.754,34.596 h 2.1337 c -7.5843,0 -13.717,6.1322 -13.717,13.717 0,7.5843 6.1322,13.717 13.717,13.717 h 15.85 l -21.032,8.0776 c -7.0786,2.723 -10.648,10.753 -7.9251,17.832 2.723,7.0786 10.601,10.496 17.679,7.7727 l 84.738,-32.615 c 0.8406,-0.32335 1.5507,-0.76018 2.2861,-1.2193 0.0488,-0.003 0.10437,0.004 0.15216,0 7.0939,-0.52905 12.65,-6.3305 12.65,-13.564 0,-7.3762 -5.8116,-13.393 -13.107,-13.717 l 9.754,-34.596 c -3.1111,-5.7038 41.455,-30.044 41.455,-95.711 0,-102 -96.947,-102.41 -97.845,-102.42 z m -35.054,23.775 c -0.003,0.10778 0,0.19654 0,0.30481 4.9663,-1.2304 7.2661,6.8571 0.80754,8.7671 -19.423,5.4912 -30.984,30.097 -30.984,30.097 -3.981,6.9087 -11.461,2.1533 -8.6232,-2.7815 3.3232,-9.0099 17.605,-31.362 38.8,-36.387 z m 75.441,245.53 c -1.7778,-0.0566 -3.5646,0.23361 -5.3342,0.91444 l -84.738,32.615 c -7.0786,2.723 -10.648,10.601 -7.9251,17.679 1.0211,2.6545 2.8702,4.739 5.0294,6.2487 1.1508,1.41 2.473,2.6766 4.115,3.6578 l 40.235,23.928 c 2.7328,2.2384 6.1208,3.5239 9.6016,3.5054 3.3951,0.0517 6.7345,-1.0996 9.4492,-3.2005 l 40.54,-24.233 c 7.4734,-4.4659 10.033,-14.191 5.7914,-21.794 -4.2411,-7.6033 -13.711,-10.105 -21.185,-5.639 l -34.596,20.575 -11.278,-6.7059 54.714,-21.032 c 7.0786,-2.723 10.648,-10.601 7.9251,-17.679 -2.0422,-5.309 -7.0117,-8.6703 -12.345,-8.8396 z" />
          <rect id="rect5319" ry="5.1452999" transform="rotate(90)" height="10.291" width="41.161999" y="-326.04001" x="277.07001" />
          <rect id="rect5337" transform="rotate(60.001)" ry="5.1452999" height="10.291" width="41.161999" y="-62.046001" x="378.95001" />
          <rect id="rect5339" ry="5.1452999" transform="rotate(30)" height="10.291" width="41.161999" y="218.46001" x="330.98999" />
          <rect id="rect5345" ry="5.1452999" transform="matrix(-0.5,0.86603,0.86603,0.5,0,0)" height="10.291" width="41.161999" y="493.95001" x="57.950001" />
          <rect id="rect5347" transform="matrix(-0.86603,0.5,0.5,0.86603,0,0)" ry="5.1452999" height="10.291" width="41.161999" y="539.46002" x="-225" />
          <rect id="rect5349" ry="5.1452999" transform="scale(-1,1)" height="10.291" width="30.013" y="425.85999" x="-480.13" />
          <rect id="rect5351" transform="scale(-1,1)" ry="5.1452999" height="10.291" width="30.013" y="425.85999" x="-191.89" />
        </g>
        <path id="path44249" style="font-size:31.081px;line-height:1.25;font-family:Colaborate-Medium;-inkscape-font-specification:Colaborate-Medium;letter-spacing:0px;word-spacing:0px;baseline-shift:baseline;vector-effect:none;stroke-width:1.21448;stop-color:#000000" d="M 546.41992 722.13672 C 538.59867 722.13672 536.15039 727.47669 536.15039 733.59766 C 536.15039 740.53475 538.87003 745.22656 546.2832 745.22656 C 548.7656 745.22656 550.53435 744.85198 552.47266 744.17188 L 551.14648 740.56836 C 549.3782 741.28247 548.05114 741.92773 546.21484 741.92773 C 542.03219 741.92773 540.57031 738.96936 540.57031 733.5625 C 540.57031 728.46169 542.10123 725.43555 546.41992 725.43555 C 548.05218 725.43555 549.47997 726.0129 550.9082 726.625 L 552.23438 723.02148 C 550.56811 722.47739 548.32421 722.13672 546.41992 722.13672 z M 607.73047 722.23828 L 607.73047 744.58008 L 611.57422 744.58008 L 611.57422 734.44727 C 612.32233 732.98504 613.37636 731.52344 614.97461 731.52344 C 617.25297 731.52344 617.38867 733.08694 617.38867 734.61719 L 617.38867 744.58008 L 621.23047 744.58008 L 621.23047 734.78711 C 621.23047 731.21655 620.17781 728.56445 615.62109 728.56445 C 613.44474 728.56445 612.08429 730.39997 611.57422 731.08008 L 611.57422 722.23828 L 607.73047 722.23828 z M 625.65234 722.58008 L 625.65234 725.91211 L 629.69922 725.91211 L 629.69922 722.58008 L 625.65234 722.58008 z M 667.44531 728.49609 C 665.81305 728.56415 662.85389 728.80228 661.5957 728.9043 C 660.74555 728.73426 660.13273 728.59766 658.97656 728.59766 C 652.8556 728.59766 651.9375 732.67819 651.9375 734.48047 C 651.9375 736.58881 653.09389 737.94891 653.50195 738.45898 C 652.5838 739.13909 651.69922 740.05751 651.69922 741.17969 C 651.69922 742.43789 652.31166 743.45821 653.67188 744.07031 C 652.82175 744.41037 651.15625 745.19301 651.15625 747.0293 C 651.15625 749.64771 653.06102 751.41602 659.25 751.41602 C 663.16061 751.41602 667.20703 750.32827 667.20703 746.92773 C 667.20703 744.37733 665.77882 742.88037 659.58984 742.4043 C 655.71322 742.09825 654.92969 741.82589 654.92969 741.00977 C 654.92969 740.43167 655.27047 740.09271 655.64453 739.88867 C 656.46067 740.26273 658.46684 740.4668 659.04492 740.4668 C 664.51979 740.4668 666.11914 737.16805 666.11914 734.51562 C 666.11914 733.0534 665.16679 731.69218 664.55469 731.08008 L 666.45898 731.08008 L 667.44531 728.49609 z M 562.84375 728.56445 C 557.26687 728.56445 555.1582 732.40592 555.1582 736.72461 C 555.1582 741.21332 557.23287 745.05664 562.84375 745.05664 C 568.42064 745.05664 570.49609 741.17931 570.49609 736.72461 C 570.49609 732.2019 568.48866 728.56445 562.84375 728.56445 z M 642.00781 728.56445 C 639.83148 728.56445 638.50547 730.39997 637.85938 731.08008 L 637.24805 729.04102 L 633.71094 729.04102 C 633.84695 730.1292 634.11914 731.04568 634.11914 732.33789 L 634.11914 744.58008 L 637.96094 744.58008 L 637.96094 734.44727 C 638.67504 732.98504 639.76504 731.52344 641.36328 731.52344 C 643.64164 731.52344 643.77734 733.08694 643.77734 734.61719 L 643.77734 744.58008 L 647.61914 744.58008 L 647.61914 734.78711 C 647.61914 731.21655 646.56455 728.56445 642.00781 728.56445 z M 581.24023 728.59766 C 578.79184 728.59766 576.10559 729.00579 574.03125 729.75391 L 575.35742 732.91602 C 576.85366 732.2019 578.89477 731.55664 581.03711 731.55664 C 583.00942 731.55664 583.24805 732.88208 583.24805 734.07227 L 583.24805 734.82031 L 581.95508 734.82031 C 575.32404 734.82031 573.41992 737.3375 573.41992 740.5 C 573.41992 743.45847 575.52804 745.02344 579.47266 745.02344 C 581.17292 745.02344 582.66939 743.83176 583.51953 743.01562 L 584.09766 744.58008 L 587.73633 744.58008 C 587.53229 742.84581 587.12305 741.04451 587.12305 739.82031 L 587.12305 733.5625 C 587.12305 730.16196 584.67479 728.59766 581.24023 728.59766 z M 598.95703 728.59766 C 593.68619 728.59766 591.16992 731.89689 591.16992 736.92969 C 591.16992 741.69044 593.75466 745.02344 598.85547 745.02344 C 600.04566 745.02344 603.13987 744.51169 604.33008 743.93359 L 603.00391 740.77148 C 601.6777 741.45159 599.94479 742.06445 598.89062 742.06445 C 596.57826 742.06445 595.11523 740.56825 595.11523 736.92969 C 595.11523 732.95106 596.33942 731.55664 598.92383 731.55664 C 600.08001 731.55664 601.71296 732.27151 602.86914 732.84961 L 604.19531 729.68555 C 603.07314 729.24348 600.35125 728.59766 598.95703 728.59766 z M 625.75391 729.04102 L 625.75391 744.58008 L 629.5957 744.58008 L 629.5957 729.04102 L 625.75391 729.04102 z M 659.04492 731.48828 C 661.15325 731.48828 662.17383 732.60983 662.17383 734.41211 C 662.17383 735.87434 661.46045 737.57617 659.08008 737.57617 C 657.2778 737.57617 655.88281 736.75917 655.88281 734.54883 C 655.88281 732.13444 657.48067 731.48828 659.04492 731.48828 z M 562.84375 731.52344 C 565.42816 731.52344 566.55078 732.91601 566.55078 736.72461 C 566.55078 740.4992 565.22414 742.09766 562.84375 742.09766 C 560.25935 742.09766 559.10352 740.22716 559.10352 736.72461 C 559.10352 732.91601 560.39538 731.52344 562.84375 731.52344 z M 582.43164 737.40625 L 583.28125 737.40625 L 583.28125 740.4668 C 582.66915 741.31693 581.61572 742.06445 580.1875 742.06445 C 578.75927 742.06445 577.43164 741.65628 577.43164 740.33008 C 577.43164 738.45978 578.75907 737.40625 582.43164 737.40625 z M 656.22266 745.36328 C 661.83354 745.49931 663.26172 746.28163 663.26172 746.92773 C 663.26172 748.18594 662.31047 748.59375 659.25 748.59375 C 657.14166 748.59375 655.09961 748.01475 655.09961 746.89258 C 655.09961 746.28048 655.50854 745.70333 656.22266 745.36328 z " transform="matrix(0.91400257,0,0,0.91400257,-303.30776,-474.85226)" />
      </g>
      <g id="g38562" transform="matrix(0.28947767,0,0,0.28947767,57.216479,127.45753)">
        <g id="g919" transform="matrix(0.94958952,0,0,0.94958952,-122.609,-51.711235)">
          <path d="m 106.76,180.72 c -0.793,-0.515 -1.609,-1.393 -2.301,-2.53 -0.681,-1.135 -1.215,-2.531 -1.217,-4.049 -0.004,-1.143 0.323,-2.354 1.113,-3.447 0.837,-1.152 2.146,-2.32 3.535,-3.257 1.404,-0.923 2.801,-1.64 4.15,-1.67 0.035,0 0.09,0 0.138,0.004 1.465,0.077 3.046,0.745 4.349,1.885 1.291,1.135 2.299,2.813 2.298,4.854 10e-4,2.073 -1.042,4.365 -3.464,6.694 -1.207,1.151 -3.06,2.479 -5.379,2.496 h -0.016 c -1.03,0.02 -2.14,-0.28 -3.2,-0.96 z" fill="#fff" id="path37" style="fill:#000000" />
          <path d="m 118.97,191.1 c -2.045,-0.016 -3.99,-1.104 -5.482,-2.596 -1.479,-1.502 -2.553,-3.448 -2.566,-5.478 -0.004,-1.086 0.344,-2.2 1.119,-3.116 1.928,-2.274 4.808,-4.52 6.999,-5.307 0.664,-0.229 1.405,-0.319 2.184,-0.322 2.054,0.029 4.384,0.593 5.771,2.073 1.024,1.168 2.273,3.059 2.299,5.251 0.008,1.082 -0.361,2.241 -1.232,3.206 -2.156,2.405 -4.12,4.299 -6.753,5.712 -0.739,0.397 -1.54,0.576 -2.33,0.576 l -0.01,0.01 z" fill="#fff" id="path39" style="fill:#000000" />
          <path d="m 124.14,195.38 c -1.415,-1.119 -2.539,-2.672 -2.557,-4.511 -0.002,-0.741 0.205,-1.507 0.633,-2.211 v 0.001 c 1.255,-2.062 3.659,-4.514 5.301,-6.245 1.381,-1.438 3.268,-2.51 5.309,-2.522 0.676,0 1.367,0.127 2.027,0.407 1.936,0.845 3.939,2.839 3.988,5.493 0.001,0.783 -0.201,1.6 -0.639,2.38 -1.596,2.807 -3.783,6.778 -6.781,8.505 -0.715,0.4 -1.513,0.565 -2.311,0.565 -1.75,-0.01 -3.54,-0.75 -4.97,-1.86 z" fill="#fff" id="path41" style="fill:#000000" />
          <path d="m 130.98,198.33 c -0.097,-0.31 -0.136,-0.623 -0.136,-0.936 0.015,-1.238 0.553,-2.486 1.237,-3.727 0.695,-1.229 1.57,-2.418 2.381,-3.346 1.131,-1.306 2.545,-1.899 3.849,-1.892 0.991,0 1.901,0.321 2.632,0.831 1.057,0.706 2.24,2.195 2.211,4.661 -0.002,0.85 -0.125,1.813 -0.4,2.923 0.768,0.415 1.846,0.961 2.662,1.305 l 1.514,0.634 -1.273,1.037 c -1.564,1.268 -4.197,3.106 -7.613,3.116 -0.371,0 -0.748,-0.023 -1.133,-0.069 -1.865,-0.229 -3.201,-0.741 -4.158,-1.575 -0.96,-0.82 -1.43,-1.88 -1.77,-2.95" fill="#fff" id="path43" style="fill:#000000" />
          <line y1="197.39999" x2="132.82001" x1="132.82001" y2="197.39999" fill="#231F20" id="line45" style="fill:#000000" />
          <path d="m 157.52,199.34 c -5.002,-1.018 -11.746,-6.68 -16.36,-11.769 -0.183,-0.202 -0.167,-0.514 0.036,-0.696 0.201,-0.182 0.513,-0.167 0.695,0.037 4.498,5.007 11.3,10.592 15.82,11.463 0.268,0.052 0.441,0.312 0.387,0.577 -0.047,0.236 -0.252,0.397 -0.482,0.397 -0.05,-0.01 -0.08,-0.01 -0.11,-0.01 z" fill="#fff" id="path47" style="fill:#000000" />
          <path d="m 169.54,195.14 c -4.338,-0.908 -12.709,-7.734 -18.841,-14.909 -0.177,-0.208 -0.151,-0.518 0.055,-0.693 0.209,-0.178 0.519,-0.152 0.697,0.055 5.973,7.068 14.514,13.869 18.283,14.581 v 0.002 c 0.268,0.052 0.439,0.312 0.387,0.579 -0.047,0.234 -0.254,0.396 -0.482,0.396 -0.05,-0.01 -0.08,-0.02 -0.11,-0.02 z" fill="#fff" id="path49" style="fill:#000000" />
          <path d="m 179.83,188.71 c -3.256,-1.411 -9.529,-6.536 -11.564,-8.559 -1.018,-1.02 -3.336,-3.712 -5.5,-6.433 -2.172,-2.746 -4.139,-5.375 -4.535,-6.601 -0.08,-0.261 0.068,-0.535 0.328,-0.614 0.26,-0.079 0.535,0.068 0.613,0.329 0.221,0.806 2.225,3.605 4.363,6.272 2.143,2.693 4.475,5.396 5.428,6.35 1.904,1.916 8.295,7.095 11.256,8.35 0.25,0.109 0.367,0.397 0.258,0.647 -0.078,0.187 -0.262,0.299 -0.451,0.299 -0.08,0 -0.14,-0.02 -0.21,-0.05 z" fill="#fff" id="path51" style="fill:#000000" />
          <path d="m 185.54,179.32 c -2.439,-2.398 -11.945,-12.257 -15.762,-16.396 -5.254,-0.732 -9.9,-3.519 -13.283,-7.076 -3.121,-3.296 -5.203,-7.258 -5.614,-11.037 -0.522,0.089 -1.128,0.171 -1.785,0.248 -1.255,0.143 -2.638,0.247 -3.749,0.247 -0.318,-0.003 -0.605,-0.008 -0.872,-0.026 -0.708,1.735 -1.974,3.79 -3.425,5.688 -1.703,2.192 -3.566,4.129 -5.359,4.951 -1.182,0.521 -2.596,0.817 -4.023,0.821 -1.32,-0.004 -2.661,-0.257 -3.814,-0.915 -1.154,-0.649 -2.099,-1.771 -2.43,-3.279 L 125.4,152.44 v -0.11 c 0.011,-1.333 0.486,-2.741 0.994,-4.104 0.513,-1.352 1.08,-2.652 1.323,-3.499 0.505,-1.71 1.02,-6.617 1.262,-8.476 0.135,-0.999 0.432,-2.331 1.338,-3.582 0.904,-1.255 2.412,-2.37 4.719,-2.985 3.977,-1.067 9.654,-2.788 12.641,-4.208 1.759,-0.827 3.548,-1.87 6.109,-1.871 1.83,0 3.969,0.529 6.73,1.877 6.252,3.058 18.012,6.863 20.438,7.305 l 0.395,0.075 0.23,0.329 c 4.688,6.695 10.971,19.131 14.936,38.789 l 0.111,0.551 -0.418,0.376 c -1.787,1.596 -7.287,5.35 -9.502,6.576 l -0.643,0.352 -0.54,-0.52 z" fill="#fff" id="path53" style="fill:#000000" />
          <path d="M 168.13,162.58 Z" fill="#231F20" id="path55" style="fill:#000000" />
          <path d="m 196.44,171.63 c 0.377,1.607 1.184,6.101 0.035,6.306 -1.15,0.205 -2.9,-3.22 -2.49,-3.959 0.41,-0.74 2.45,-2.35 2.45,-2.35 z" fill="#fff" id="path57" style="fill:#000000" />
          <path d="m 142.75,196.85 c 0.025,0.014 0.057,0.029 0.083,0.044 -0.028,-0.016 -0.055,-0.03 -0.083,-0.046 v 0.01 z m 45.73,-17.24 c -0.32,-0.461 -0.758,-0.926 -1.365,-1.509 -0.334,0.203 -0.635,0.38 -0.885,0.517 -2.463,-2.422 -12.354,-12.685 -15.967,-16.624 -0.494,-0.06 -0.979,-0.154 -1.463,-0.252 2.109,2.41 4.039,4.548 5.363,5.873 3.268,3.267 9.24,9.692 11.391,11.72 0.688,0.644 1.102,1.097 1.301,1.39 0.197,0.307 0.195,0.37 0.205,0.523 0.004,0.152 -0.061,0.459 -0.186,0.95 -0.199,0.829 -0.379,2.003 -1.268,3.059 -0.885,1.032 -2.498,2.056 -6.018,2.186 l -0.867,0.029 -0.08,0.863 c -0.197,2.088 -0.604,3.151 -0.994,3.753 -0.393,0.6 -0.805,0.84 -1.418,1.306 -0.57,0.436 -1.736,1.027 -3.785,1.028 -0.871,0 -1.902,-0.109 -3.109,-0.388 l -0.832,-0.191 -0.309,0.796 c -0.236,0.657 -1.17,1.719 -2.602,2.517 -1.43,0.813 -3.33,1.413 -5.494,1.412 -0.807,0 -1.648,-0.083 -2.521,-0.268 l -0.635,-0.133 -0.373,0.528 c -0.662,0.959 -2.158,2.061 -3.684,2.037 -0.301,-0.002 -0.607,-0.038 -0.924,-0.122 -1.124,-0.294 -3.058,-0.974 -5.053,-1.804 l -1.247,1.016 c -0.151,0.123 -0.322,0.255 -0.494,0.386 2.395,1.05 4.83,1.911 6.289,2.307 0.484,0.128 0.963,0.188 1.43,0.188 2.123,-0.021 3.832,-1.153 4.889,-2.359 0.795,0.133 1.572,0.194 2.324,0.194 2.529,-0.001 4.752,-0.692 6.469,-1.666 1.375,-0.793 2.438,-1.734 3.076,-2.759 1.031,0.196 1.963,0.28 2.801,0.28 2.434,0.002 4.059,-0.722 4.986,-1.438 0.455,-0.354 1.234,-0.813 1.869,-1.793 0.549,-0.852 0.967,-2.019 1.205,-3.796 3.361,-0.259 5.42,-1.421 6.605,-2.837 1.277,-1.51 1.508,-3.207 1.676,-3.855 0.115,-0.475 0.238,-0.896 0.244,-1.425 0,-0.58 -0.21,-1.17 -0.56,-1.67 z m -47.29,-53.1 c -4.22,-0.227 -8.74,-0.392 -11.621,-0.474 -5.768,-0.15 -13.951,-0.036 -18.718,-1.904 l -1.071,-0.414 -0.246,1.122 c -2.801,12.795 -8.808,26.791 -13.601,37.107 l -0.29,0.626 0.487,0.485 c 2.827,2.826 5.77,5.216 8.551,7.244 0.396,-0.487 0.855,-0.97 1.376,-1.435 -2.621,-1.899 -5.381,-4.116 -8.045,-6.72 4.63,-10.018 10.311,-23.314 13.203,-35.808 5.385,1.676 12.94,1.498 18.298,1.664 2.865,0.082 7.376,0.247 11.571,0.472 0.421,0.022 0.839,0.046 1.252,0.069 1.666,-0.545 3.259,-1.112 4.582,-1.663 -1.7,-0.15 -3.67,-0.27 -5.73,-0.38 z" fill="#fff" id="path59" style="fill:#000000" />
          <path d="m 76.171,161.95 c -0.004,0.664 -0.56,1.198 -0.84,1.789 1.617,0.616 3.649,1.403 5.647,2.189 3.582,1.406 7.139,2.846 7.895,3.227 0.639,0.321 1.287,0.481 1.904,0.481 h 0.006 c 1.436,-0.002 2.541,-0.824 3.248,-1.741 l 0.016,-0.021 0.017,-0.024 c 8.173,-11.864 16.354,-39.365 16.889,-41.312 0.177,-0.667 0.271,-1.354 0.271,-2.027 -0.011,-1.414 -0.385,-2.922 -1.767,-3.663 -0.409,-0.2 -1.339,-0.567 -2.679,-1.085 -3.975,-1.526 -11.138,-4.146 -13.685,-4.994 0.192,12.96 -16.909,46.33 -16.914,47.16 z" fill="#fff" id="path61" style="fill:#000000" />
          <path d="m 196.6,124.76 c 7.777,6.613 18.148,36.326 19.754,52.949 -1.811,0.752 -3.727,1.434 -5.338,1.68 -0.998,0.148 -2.191,0.217 -3.439,0.217 -1.605,0 -3.299,-0.117 -4.768,-0.367 -1.475,-0.271 -2.691,-0.576 -3.561,-1.328 1.148,-0.205 0.42,-4.828 0.043,-6.436 -3.965,-19.658 -10.248,-32.094 -14.936,-38.789 l -0.23,-0.437 c 0.461,-0.32 1.057,-0.666 1.773,-1.059 0.938,-0.515 2.055,-1.081 3.186,-1.634 1.43,-0.68 6.39,-4.28 7.53,-4.79 z" fill="#fff" id="path63" style="fill:#000000" />
        </g>
        <path id="path44293" style="font-size:31.081px;line-height:1.25;font-family:Colaborate-Medium;-inkscape-font-specification:Colaborate-Medium;letter-spacing:0px;word-spacing:0px;stroke-width:1.21448" d="M 254.19531 673.51172 C 250.14867 673.51172 245.66016 675.21176 245.66016 679.56445 C 245.66016 683.54309 248.65171 685.00478 251.57617 686.12695 C 254.33061 687.18113 256.98438 687.96417 256.98438 690.31055 C 256.98438 692.79294 255.04545 693.30273 252.29102 693.30273 C 250.48873 693.30273 248.61859 692.55349 246.98633 691.94141 L 245.66016 695.54688 C 247.53045 696.05696 250.35351 696.60156 252.25781 696.60156 C 256.78053 696.60156 261.33594 695.54702 261.33594 690.24219 C 261.33594 685.41342 257.59609 683.9503 254.43359 682.82812 C 252.08722 681.97799 250.01367 681.33273 250.01367 679.56445 C 250.01367 678.27225 250.89724 676.81055 254.09375 676.81055 C 256.20208 676.81055 257.80039 677.52427 259.05859 678.06836 L 260.38477 674.46289 C 258.58248 673.85079 255.69155 673.51172 254.19531 673.51172 z M 352.0957 676.23242 L 352.0957 680.38086 L 349.51172 680.38086 L 349.51172 683.37305 L 352.0957 683.37305 L 352.0957 691.875 C 352.0957 695.85363 355.36212 698.30175 359.13672 699.25391 L 360.15625 695.95508 C 357.57184 695.34299 355.93945 694.39004 355.93945 692.17969 L 355.93945 683.37305 L 359.57812 683.37305 L 359.57812 680.38086 L 355.93945 680.38086 L 355.93945 676.23242 L 352.0957 676.23242 z M 291.36328 679.9375 C 289.42497 679.9375 288.16644 681.50293 287.48633 682.45508 L 286.80664 680.41406 L 283.26953 680.41406 C 283.50757 682.25035 283.67773 683.20347 283.67773 685.17578 L 283.67773 702.07617 L 287.52148 702.07617 L 287.52148 694.42383 C 288.40562 695.64802 290.13933 696.43164 291.60156 696.43164 C 296.05627 696.43164 298.02734 692.58821 298.02734 688.26953 C 298.02734 683.81483 296.22605 679.9375 291.36328 679.9375 z M 309.41992 679.9375 C 307.48162 679.9375 306.22308 681.50293 305.54297 682.45508 L 304.86328 680.41406 L 301.32617 680.41406 C 301.56421 682.25035 301.73438 683.20347 301.73438 685.17578 L 301.73438 702.07617 L 305.57812 702.07617 L 305.57812 694.42383 C 306.46226 695.64802 308.19597 696.43164 309.6582 696.43164 C 314.11291 696.43164 316.08594 692.58821 316.08594 688.26953 C 316.08594 683.81483 314.28269 679.9375 309.41992 679.9375 z M 326.69531 679.9375 C 321.11843 679.9375 319.00977 683.78093 319.00977 688.09961 C 319.00977 692.58832 321.08443 696.43164 326.69531 696.43164 C 332.27219 696.43164 334.3457 692.55431 334.3457 688.09961 C 334.3457 683.5769 332.3402 679.9375 326.69531 679.9375 z M 345.66992 679.9375 C 344.00366 679.9375 342.33705 682.08026 341.79297 683.06641 L 341.18164 680.41406 L 337.64453 680.41406 C 337.74654 681.19618 338.05273 682.35257 338.05273 683.88281 L 338.05273 695.95508 L 341.89453 695.95508 L 341.89453 686.67188 C 342.26859 685.75373 343.25436 682.89648 345.05664 682.89648 C 345.90677 682.89648 346.72464 683.40753 347.30273 683.84961 L 348.62891 680.68555 C 347.71076 680.20948 346.96213 679.9375 345.66992 679.9375 z M 265.92773 680.41406 L 265.92773 690.20898 C 265.92773 693.77955 267.11686 696.43164 271.43555 696.43164 C 273.61189 696.43164 274.80312 694.59417 275.44922 693.91406 L 276.06055 695.95508 L 279.59766 695.95508 C 279.46163 694.86691 279.18945 693.94845 279.18945 692.65625 L 279.18945 680.41406 L 275.34766 680.41406 L 275.34766 690.54883 C 274.63354 692.01107 273.68028 693.47266 272.08203 693.47266 C 269.93969 693.47266 269.76953 691.87514 269.76953 690.37891 L 269.76953 680.41406 L 265.92773 680.41406 z M 290.44531 682.89648 C 292.79168 682.89648 294.08398 684.08651 294.08398 688.20117 C 294.08398 692.41783 292.62099 693.47266 290.88672 693.47266 C 289.39048 693.47266 288.26925 692.69075 287.45312 691.22852 L 287.45312 685.78711 C 288.13323 684.32488 289.1191 682.89648 290.44531 682.89648 z M 308.50195 682.89648 C 310.84832 682.89648 312.14062 684.08651 312.14062 688.20117 C 312.14062 692.41783 310.67763 693.47266 308.94336 693.47266 C 307.44712 693.47266 306.32589 692.69075 305.50977 691.22852 L 305.50977 685.78711 C 306.18987 684.32488 307.17574 682.89648 308.50195 682.89648 z M 326.69531 682.89648 C 329.27972 682.89648 330.40039 684.29101 330.40039 688.09961 C 330.40039 691.8742 329.07569 693.47266 326.69531 693.47266 C 324.1109 693.47266 322.95508 691.60217 322.95508 688.09961 C 322.95508 684.29101 324.24693 682.89648 326.69531 682.89648 z " transform="matrix(0.91400257,0,0,0.91400257,-267.43632,-454.80312)" />
      </g>
      <path id="path39335" style="color:#000000;fill:#000000;fill-rule:evenodd;stroke-width:0.264583;-inkscape-stroke:none" transform="matrix(-0.16814396,0.23563727,-0.23563727,-0.16814396,128.06094,133.92783)" d="m 123.68555,141.43359 c -0.10853,0.002 -0.23716,0.0312 -0.34375,0.12305 -0.20792,0.17913 -0.20079,0.43516 -0.15821,0.65234 0.0426,0.21719 0.13701,0.45384 0.27735,0.73243 0.28093,0.55775 0.75373,1.27267 1.42968,2.08007 0.67627,0.80778 1.55493,1.70365 2.61915,2.59571 1.06435,0.89217 2.31546,1.77923 3.71093,2.57031 1.6226,0.9199 3.25645,1.60545 4.74805,2.07227 1.81777,0.5686 3.41116,0.81616 4.56055,0.86132 0.5737,0.0225 1.03319,-7.4e-4 1.38476,-0.0723 0.17579,-0.0358 0.32649,-0.0823 0.45899,-0.15821 0.13249,-0.076 0.26981,-0.2031 0.30273,-0.39453 0.0327,-0.19017 -0.056,-0.35526 -0.15234,-0.46875 -0.0964,-0.11348 -0.21485,-0.20484 -0.35938,-0.29882 -0.28906,-0.18797 -0.68406,-0.38098 -1.17968,-0.59961 -0.98986,-0.43665 -2.37009,-0.97515 -3.95118,-1.6875 -1.29451,-0.58316 -2.72685,-1.28857 -4.1914,-2.11914 -1.25973,-0.71436 -2.42559,-1.45334 -3.47071,-2.16211 -1.04535,-0.70889 -1.97061,-1.38685 -2.75586,-1.96485 -0.78548,-0.5782 -1.43161,-1.05493 -1.93945,-1.36719 -0.37964,-0.23343 -0.65169,-0.39665 -0.98242,-0.39453 h -0.002 a 0.32252723,0.32252723 0 0 0 -0.006,0 z m -22.28321,9.66993 c -5.920785,0.0115 -11.111003,0.13208 -14.828121,0.33007 -1.858559,0.099 -3.347983,0.21629 -4.384766,0.35157 -0.518391,0.0676 -0.921736,0.13931 -1.216797,0.2207 -0.14753,0.0407 -0.267925,0.0813 -0.376953,0.14258 -0.05451,0.0306 -0.107426,0.0655 -0.160156,0.125 -0.05273,0.0595 -0.106474,0.15784 -0.107422,0.27148 -0.0011,0.12986 0.06509,0.23573 0.125,0.29688 0.05991,0.0611 0.120172,0.0965 0.183594,0.1289 0.126843,0.0649 0.273841,0.11244 0.458984,0.16016 0.370287,0.0954 0.887163,0.18199 1.550781,0.26758 1.327236,0.17117 3.232399,0.33082 5.585938,0.4707 4.707077,0.27977 11.203625,0.48219 18.376958,0.54297 7.17333,0.0608 13.67088,-0.0323 18.38281,-0.23242 2.35596,-0.10007 4.26354,-0.22628 5.59375,-0.375 0.6651,-0.0744 1.18473,-0.15303 1.55664,-0.24219 0.18595,-0.0446 0.333,-0.0896 0.46094,-0.15234 0.064,-0.0314 0.1246,-0.0668 0.18554,-0.12696 0.0609,-0.0601 0.12978,-0.16503 0.13086,-0.29492 0.001,-0.12988 -0.0651,-0.23573 -0.125,-0.29687 -0.0599,-0.0611 -0.12016,-0.0965 -0.18359,-0.12891 -0.12686,-0.0649 -0.27382,-0.11244 -0.45899,-0.16016 -0.37033,-0.0954 -0.88707,-0.18199 -1.55078,-0.26757 -1.32741,-0.17118 -3.23411,-0.33082 -5.58789,-0.47071 -4.70756,-0.27977 -11.20362,-0.48218 -18.37695,-0.54297 -1.79333,-0.0152 -3.54271,-0.0209 -5.23438,-0.0176 z m 39.37696,2.95703 c -0.12878,-2.7e-4 -0.26345,0.002 -0.40821,0.008 -1.14915,0.0453 -2.74159,0.29299 -4.55859,0.86133 -1.49149,0.46681 -3.12546,1.15235 -4.74805,2.07226 -1.39521,0.79099 -2.64635,1.67604 -3.71093,2.56836 -1.0644,0.8922 -1.94305,1.79009 -2.61914,2.59766 -0.67576,0.80715 -1.15042,1.52171 -1.43165,2.08008 -0.14045,0.27886 -0.23534,0.51693 -0.27734,0.73437 -0.042,0.21744 -0.0472,0.47176 0.16016,0.65039 0.10347,0.0891 0.23699,0.122 0.34765,0.12305 0.11067,0.001 0.21052,-0.0229 0.3125,-0.0566 0.20398,-0.0676 0.41969,-0.18179 0.67383,-0.33789 0.50838,-0.31258 1.15424,-0.79115 1.93945,-1.36914 0.7849,-0.57779 1.71025,-1.25385 2.75586,-1.96289 1.04545,-0.70895 2.21129,-1.44982 3.47071,-2.16407 1.46447,-0.83045 2.89679,-1.5339 4.1914,-2.11718 1.58105,-0.71242 2.95946,-1.25092 3.94922,-1.6875 0.49571,-0.21867 0.89214,-0.41117 1.18164,-0.59961 0.14475,-0.0942 0.26292,-0.18527 0.35938,-0.29883 0.0965,-0.11356 0.1851,-0.28008 0.15234,-0.4707 -0.0289,-0.16793 -0.14329,-0.29054 -0.25586,-0.36524 -0.11256,-0.0747 -0.23604,-0.11917 -0.3789,-0.15625 -0.28574,-0.0742 -0.65201,-0.10843 -1.10547,-0.10937 z" />
      <use x="0" y="0" xlink:href="#path39335" id="use39501" transform="rotate(-45.360366,108.44237,65.151762)" width="100%" height="100%" />
      <use x="0" y="0" xlink:href="#path39335" id="use39583" transform="rotate(-74.876329,117.83317,57.768571)" width="100%" height="100%" />
      <use x="0" y="0" xlink:href="#path39335" id="use39585" transform="rotate(-127.30104,123.26952,80.76348)" width="100%" height="100%" />
      <use x="0" y="0" xlink:href="#path39335" id="use39587" transform="rotate(-165.86558,125.92318,93.578643)" width="100%" height="100%" />
      <use x="0" y="0" xlink:href="#path39335" id="use39589" transform="rotate(144.14646,126.7421,106.14206)" width="100%" height="100%" />
      <use x="0" y="0" xlink:href="#path39335" id="use39591" transform="rotate(110.26831,110.39925,101.78616)" width="100%" height="100%" />
      <use x="0" y="0" xlink:href="#path39335" id="use39593" transform="rotate(62.444,100.44748,97.586175)" width="100%" height="100%" />
      <g id="g39954" transform="matrix(0.28947767,0,0,0.28947767,190.85703,109.28593)">
        <path id="path39926" style="color:#000000;fill:#000000;stroke-width:1;stroke-linejoin:round;-inkscape-stroke:none" d="m -139.04884,-155.883 c -22.2989,0 -42.526,5.27641 -57.34791,13.95677 -6.09766,3.57106 -11.28175,7.76477 -15.30554,12.41681 -12.28047,-14.48429 -32.38103,-23.67002 -54.90154,-24.37009 v 5.2e-4 c -1.22438,-0.0381 -2.45573,-0.0516 -3.69332,-0.0393 -3.71274,0.037 -7.48085,0.30315 -11.27942,0.81236 l 0.60565,4.51548 c 32.2022,-4.317 61.32772,9.69816 72.41781,32.13344 1.58155,-0.19768 3.16606,-0.40176 4.73615,-0.57929 -1.41163,-3.07251 -3.04739,-6.03692 -5.02243,-8.8036 3.69658,-4.47103 8.65246,-8.58655 14.74534,-12.15481 13.95111,-8.17037 33.46913,-13.332 55.04521,-13.332 21.57611,0 41.091537,5.16163 55.042646,13.332 5.919496,3.46672 10.795423,7.44146 14.458023,11.76517 -7.798487,-2.96114 -16.273621,-4.7666 -25.120943,-5.16557 -1.227217,-0.0553 -2.461392,-0.084 -3.701574,-0.0858 -3.720542,-0.005 -7.495462,0.2339 -11.300622,0.73381 l 0.3075,2.33112 -0.31472,-2.3275 c -12.36432,1.6531 -23.64396,5.89896 -33.28273,11.94552 2.71875,0.17831 5.40107,0.38793 8.03156,0.64079 7.75803,-3.97999 16.44938,-6.81407 25.85061,-8.07186 0.002,-3.2e-4 0.006,3.4e-4 0.008,0 3.60492,-0.47325 7.17569,-0.70156 10.689804,-0.6997 1.171178,6.2e-4 2.336059,0.0268 3.493823,0.078 h 5.29e-4 c 32.439028,1.43523 59.337945,22.51466 63.160486,51.230466 4.368456,32.817024 -22.94001,63.812149 -61.517688,68.9740837 -5.173213,0.6793772 -10.258454,0.8017139 -15.224394,0.5193482 -2.32886,1.3026252 -4.71077,2.5899253 -7.15822,3.8576456 7.39455,1.0483241 15.11073,1.17436 22.974831,0.1415934 a 2.2787667,2.2787667 0 0 0 0.0072,0 c 7.027466,-0.9396153 13.720683,-2.7023396 19.961569,-5.1583415 -1.411843,8.7147568 -6.980052,17.2142357 -15.846055,24.5220176 -11.506995,9.484569 -28.413445,16.757747 -47.849785,19.357475 -19.38602,2.546829 -37.57398,-0.05695 -51.14261,-6.201173 -2.6003,-1.177476 -4.96432,-2.51426 -7.19648,-3.928442 -1.97969,0.478802 -3.97269,0.944676 -5.97739,1.398881 3.36288,2.530949 7.12388,4.79372 11.29334,6.681764 1.03683,0.469492 2.10233,0.913151 3.18329,1.342035 -2.30778,2.637986 -4.93004,5.190136 -7.86877,7.622791 -13.52163,11.193058 -33.34115,19.737435 -56.11545,22.75985 a 2.2787726,2.2787726 0 0 0 -0.006,0 c -22.77038,3.07417 -44.13062,-0.0044 -60.10899,-7.29878 -12.26942,-5.60129 -21.25888,-13.596056 -25.60825,-23.137087 0.81999,-0.456319 1.60702,-0.958419 2.40191,-1.449524 -2.86224,-0.51043 -5.67526,-1.053906 -8.38451,-1.665531 0.095,0.321403 0.16682,0.650829 0.26976,0.969449 -5.16863,2.4151 -10.78904,4.115241 -16.76487,4.91908 -31.01149,4.079538 -59.49934,-17.40142 -63.57596,-48.0606318 v -0.00155 c -1.90653,-14.3533832 1.93125,-28.0998372 9.68208,-39.1366292 3.59013,6.051341 8.84434,11.449429 15.30038,15.903938 1.37345,0.947655 2.8249,1.83584 4.30464,2.699578 0.68347,-1.319268 1.43539,-2.639028 2.25774,-3.958931 -1.36887,-0.79923 -2.71139,-1.618462 -3.97494,-2.490288 -11.68712,-8.063836 -18.6464,-18.964449 -18.6464,-30.900438 0,-11.934984 6.95928,-22.833203 18.6464,-30.896822 11.6871,-8.063617 28.03554,-13.136667 46.15842,-13.136667 18.06961,0 34.41763,5.0721 46.11915,13.136667 1.46491,1.009613 2.85556,2.064015 4.16821,3.15898 1.59547,-0.582843 3.22546,-1.145374 4.84828,-1.712558 -1.99445,-1.833298 -4.10498,-3.595319 -6.43062,-5.198129 -9.80747,-6.75923 -22.40449,-11.44491 -36.43291,-13.18783 10.24631,-16.97161 30.2999,-30.11375 55.00698,-33.41605 l -0.60359,-4.51548 c -26.76303,3.57709 -48.7915,18.27626 -59.45682,37.4375 -2.37374,-0.1707 -4.78155,-0.25941 -7.21868,-0.25941 -18.96917,0 -36.16455,5.26068 -48.74586,13.94127 -12.58133,8.680577 -20.6153,20.937183 -20.6153,34.648529 0,4.997413 1.07162,9.799941 3.03705,14.308169 -9.31664,12.232116 -14.0919,27.830663 -11.92022,44.1761147 4.40497,33.1372223 35.26213,56.3774273 68.68779,51.9802883 a 2.2787727,2.2787727 0 0 0 0.006,-0.0021 c 6.33984,-0.85212 12.32072,-2.637071 17.82836,-5.185731 4.93752,10.633144 14.87339,19.291546 27.76368,25.176242 16.92786,7.727921 39.07205,10.848051 62.61325,7.669816 23.53659,-3.124632 44.09292,-11.906859 58.41606,-23.763407 3.58947,-2.9713 6.76423,-6.158727 9.51777,-9.496062 13.23158,4.324413 29.14034,5.786324 45.87833,3.587377 a 2.2787726,2.2787726 0 0 0 0.004,-0.0016 c 20.19763,-2.700422 37.839704,-10.210365 50.150422,-20.357412 10.346822,-8.528311 16.978604,-19.0667399 17.784948,-30.1232251 27.130718,-12.7314899 44.347023,-38.9857309 40.63783,-66.8501819 -2.702216,-20.299854 -15.942998,-36.845057 -34.310055,-46.383727 -4.16515,-7.46544 -11.200554,-14.06099 -20.185327,-19.32285 -14.821932,-8.68036 -35.046418,-13.95677 -57.345338,-13.95677 z" />
      </g>
    </g>
  </g>
  <style type="text/css" id="style10246">
	.st0{fill:#231F20;}
</style>
</svg>
