<svg xmlns="http://www.w3.org/2000/svg" width="455.783" height="681.087"><path d="M105.805 114.613c-11.933 2.823-9.223 4.006-9.223 15.453V658.25c-15.43-2.625-25.697-16.873-35.968-27.38-14.68-15.02-33.624-29.766-45.823-46.884-12.643-17.74-8.978-40.983-8.978-61.755V199.228 79.435c0-5.25-1.714-17.065 1.456-21.372 11.258-3.88 22.55-5.2 31.297-5.906l293.58-23.714c13.217-1.068 27.774-5.702 39.384 1.258l77.69 46.569-175.014 19.361c-55.849 6.175-113.011 9.34-168.401 18.982z" fill="#9f0000"/><path d="M96.582 152.228v502.931c0 11.83 51.017-.78 56.63-1.703l164.733-27.163 112.963-18.627c25.477-4.2 21.223-29.957 21.223-49.551V79.905c-65.392 6.113-130.602 14.64-195.845 22.15-42.444 4.887-84.889 9.772-127.333 14.658l-29.96 3.45c-5.98.685-2.41 26.201-2.41 32.065z" fill="#e52929"/><path fill="#a89187" stroke="#000" stroke-width="2.1862078200000004" stroke-linejoin="round" d="M103.133 111.701h-6.551l-2.671-.485-2.427-.971-5.095-1.217-1.942-1.456L16.733 66.56l-3.153-2.427-1.7-3.159 3.883-1.695 3.397-.486h3.884l4.613-.246 334.192-26.936 68.926 39.317 1.212 1.942-5.339 3.397-306.279 33.007z"/><path fill="none" stroke="#a60053" stroke-width="2.1862078200000004" stroke-linejoin="round" d="M216.23 93.256h-5.093"/><path fill="#a89187" stroke="#000" stroke-width="2.1862078200000004" stroke-linejoin="round" d="M129.591 56.366h6.549l2.188-27.667 11.164-4.129 52.175 34.709 6.796 17.228v20.386l41.99-4.608V71.168l-6.557-16.258-68.192-40.533-33.74 1.456-10.431 6.556z"/><path stroke="#000" stroke-width="2.1862078200000004" stroke-linejoin="round" d="M168.175 36.705L150.216 24.57l-11.65 4.13-1.941 27.666 29.123-2.912z"/><path fill="#a89187" stroke="#000" stroke-width="2.1862078200000004" stroke-linejoin="round" d="M375.682 46.173l.97 2.667-.97 2.912-2.669 2.427-4.368 2.427-2.67.97-3.398.971-3.155 1.217-3.64.486-3.884.724-4.125.732-4.369.485-4.612.24-4.61.246h-7.039l-7.038-.246-4.611-.24-4.369-.485-4.125-.732-3.883-.724-3.641-.486-3.155-1.217-3.153-.97-2.912-.971-4.13-2.427-2.913-2.427-.723-2.912 1.941-4.123 3.636-2.187 5.101-2.181 3.153-.971 3.155-.971 3.64-.731L307 37.19l4.125-.725 4.369-.246 4.611-.485 4.611-.24 4.854-.245 2.185.246 7.037.24 4.612.484 4.369.246 4.125.725 3.883.486 3.641.731 3.155.97 3.397.972 2.67.724 4.37 2.427z"/><path d="M326.172 80.474l-7.323-.246-4.396-.242a1.294 1.294 0 0 1-.142-.015l-4.369-.73-3.83-.478-4.189-.735a1.613 1.613 0 0 1-.132-.03l-3.397-.97-3.318-.71a1.336 1.336 0 0 1-.225-.07l-2.912-1.211-2.826-.939a1.287 1.287 0 0 1-.247-.113l-4.122-2.426a1.292 1.292 0 0 1-.257-.2l-2.674-2.671a1.288 1.288 0 0 1-.302-.474l-.97-2.668c-.15-.41-.082-.87.18-1.22l1.916-2.55-.23-7.23-.71-4.534a1.295 1.295 0 0 1 2.401-.842l1.785 3.122 3.04 1.957 4.898 2.098 2.815.705c.05.013.1.029.149.048l3.052 1.172 3.532.71 7.75 1.453 8.571.948h18.547l4.545-.478 4.36-.485 4.043-.72 4.055-.956 3.604-.962 6.681-1.909 2.51-1.137 4.17-2.55 2.622-2.623 1.114-2.675a1.293 1.293 0 0 1 2.449.813l-1.162 4.652.696 9.508 1.597 3.422c.16.343.162.74.005 1.084l-1.214 2.671a1.28 1.28 0 0 1-.343.453l-3.155 2.668a1.301 1.301 0 0 1-.303.192l-4.854 2.186-2.948 1.226c-.072.03-.147.054-.225.07l-3.397.73-3.58.956-3.72.744-4.48.503-4.042.72-4.702.498s-9.335.491-9.357.491h-7.034z" fill="#a89187"/><path d="M377.138 47.383h.007m-.007 0l-1.214 4.854.729 9.953 1.7 3.638-1.215 2.672-3.155 2.668-4.854 2.186-2.913 1.211-3.397.73-3.641.971-3.642.726-4.368.486-4.127.73-4.611.485-4.612.24-4.612.246h-7.039l-7.28-.245-4.37-.24-4.368-.73-3.883-.486-4.126-.726-3.398-.971-3.4-.73-2.913-1.212-2.912-.97-4.122-2.428-2.674-2.671-.97-2.668 2.188-2.912-.247-7.766-.723-4.614 1.941 3.398 3.398 2.186 5.092 2.183 2.915.73 3.156 1.211 3.64.73 3.884.726 3.883.73 4.368.486 4.369.485h18.689l4.612-.485 4.369-.486 4.126-.73 4.127-.97 3.64-.971 3.399-.97 3.397-.972 2.67-1.211 4.37-2.672 2.911-2.912 1.213-2.913m0-2.588a2.578 2.578 0 0 0-2.19 1.206 2.678 2.678 0 0 0-.224.443l-.994 2.384-2.332 2.332-3.969 2.429-2.35 1.066-3.213.918-3.398.97-3.558.95-4.018.944-3.972.703-4.286.477-4.462.47h-18.408l-4.226-.47-4.272-.475-3.787-.712-3.887-.726-3.391-.681-2.952-1.133a2.65 2.65 0 0 0-.297-.094l-2.716-.681-4.702-2.016-2.684-1.726-1.627-2.848a2.587 2.587 0 0 0-3.105-1.158 2.589 2.589 0 0 0-1.7 2.843l.698 4.456.214 6.695-1.643 2.185a2.592 2.592 0 0 0-.363 2.442l.97 2.667c.13.356.336.678.604.946l2.674 2.672c.154.154.327.289.515.399l4.121 2.427c.157.092.324.168.496.225l2.823.94 2.827 1.176c.145.061.296.108.45.141l3.316.712 3.315.946c.087.026.175.046.263.061l4.127.726c.042.008.084.015.128.02l3.83.479 4.315.722c.095.015.19.027.286.031l4.369.24 7.335.248.087.001h7.039c.045 0 .092-.001.137-.004l4.612-.244 4.609-.241a1.57 1.57 0 0 0 .135-.01l4.611-.486c.061-.006.122-.015.182-.026l4.043-.715 4.286-.477c.075-.008.148-.02.22-.033l3.641-.727c.054-.01.109-.023.162-.037l3.579-.954 3.337-.718c.152-.033.303-.08.449-.14l2.912-1.212c.025-.009.047-.02.07-.03l4.854-2.186c.22-.098.425-.228.608-.383l3.156-2.668a2.59 2.59 0 0 0 .686-.906l1.214-2.671a2.593 2.593 0 0 0-.011-2.166l-1.498-3.206-.664-9.064 1.08-4.321a2.587 2.587 0 0 0-2.486-3.347z"/><path d="M328.163 70.36h-6.038l-5.99-.717-5.516-.96-4.76-1.197-4.563-.961-3.792-1.423-3.416-1.218-2.66-1.112-3.107-2.664-.255-.381 2.665 1.83c.063.044.13.081.2.112l4.857 2.187c.045.02.09.039.139.054l5.339 1.697 5.903 1.478 6.127 1.23 6.912.743 6.642.252 6.799.24 6.886-.24 6.554-.244 5.77-.461-5.108 1.056-6.671.707-6.415.237z"/><path d="M284.67 54.664l-.239.486.97 2.912 1.943 2.912 3.397 2.913 2.913 1.215 3.395 1.212 3.883 1.456 4.612.97 4.854 1.216 5.582.97 6.068.727h6.068l6.554.245 6.553-.245 6.796-.726 7.039-1.456 6.795-1.456 3.398-.971 4.368-1.456 2.913-2.913-3.884 1.456-4.368 1.212-5.583.97-5.582.971-6.068.486-6.554.245-6.795.24-6.796-.24-6.553-.245-6.796-.726-6.068-1.216-5.824-1.456-5.34-1.697-4.856-2.186-3.883-2.668zm87.858 8.013h.006z"/><path fill="none" stroke="#000" stroke-width="2.1862078200000004" stroke-linejoin="round" d="M283.699 62.191l1.941 3.637 3.398 2.188 4.854 2.18 7.283 1.942 13.106 2.188 14.076.725 12.135-.24 11.65-1.216 11.163-1.696 8.252-2.912 3.883-2.427 1.456-2.673"/><path stroke="#000" stroke-width="2.1862078200000004" stroke-linejoin="round" d="M166.72 47.383l-.972 6.071-4.853.725 46.597 31.31V74.812l-4.854-15.778-20.386-12.374z"/><path d="M133.55 64.372s-18.374 7.069-6.725 17.855c11.65 10.786 32.36 14.885 32.36 14.885" fill="none" stroke="#515151" stroke-width="13.590990000000001" stroke-linecap="round" stroke-linejoin="round"/><path stroke="#000" stroke-width="2.1862078200000004" stroke-linejoin="round" d="M330.299 81.121l-16.262-.731-13.59-2.427-11.41-3.637-5.338-2.673.247-1.942 5.092 3.159 11.408 3.637 14.077 2.187 16.018.486 12.863-.486 14.804-2.187 13.106-3.637 3.883-2.188-3.883 3.883-12.62 3.398-15.29 2.427z"/><path fill="none" stroke="#a89187" stroke-width="13.590990000000001" stroke-linejoin="round" d="M153.376 17.05l59.455 38.1 7.281 20.872v13.351"/><path d="M170.926 21.172s55.275 29.82 65.82 42.099c10.546 12.278 2.544 21.248 2.544 21.248" fill="none" stroke="#fff" stroke-width="12.943800000000001" stroke-linecap="round" stroke-linejoin="round"/><path fill="#fff" stroke="#fff" stroke-linecap="round" stroke-linejoin="round" d="M286.45 47.869h-.724l4.368 4.368 7.764 3.398 9.708 1.942 12.62 1.216 14.561.725 9.708-.725-15.289-.73-15.047-1.211-10.193-1.217-8.493-1.696-4.615-3.158zM346.073 66.314l-26.453-2.427-17.474-2.427-7.283-2.667-.724 1.21 13.346 3.884 13.348 1.702 15.047 1.21z" stroke-width="1.29438"/><path fill="none" stroke="#fff" stroke-width="2.1862078200000004" stroke-linejoin="round" d="M17.949 53.694l110.672-9.462M216.715 36.465l90.77-6.07"/><path fill="#fff" d="M111.63 136.21l2.182-1.21 3.645-1.942 5.092-1.702 15.294-3.883 12.858-2.666-40.042 4.122-17.475-2.912-6.31-2.181-1.941.485-1.942 1.21-.97 3.884V643.69l5.339 5.339 6.795 3.398 7.036 1.698h1.701l24.025-1.698-15.288-3.398-5.098-3.641V142.28l.97-2.673 1.457-.971z"/><path d="M451.711 591.122a385.107 385.107 0 0 1-3.596 7.518l-.146.198-2.779 3.966a.289.289 0 0 1-.045.052l-.338.291c-1.944 1.687-3.922 3.323-5.899 4.964a1.688 1.688 0 0 1-.623.325l-.478.127-10.035 2.68-5.019 1.336-5.084 1.218-20.173 4.848-20.222 4.553c-6.747 1.479-13.472 3.09-20.237 4.456l-20.28 4.2c-6.765 1.377-13.511 2.851-20.289 4.15l-40.669 7.734c-6.77 1.329-13.577 2.451-20.364 3.68-6.792 1.211-13.582 2.423-20.387 3.547l-20.404 3.445-20.432 3.276a1578.23 1578.23 0 0 1-20.447 3.179c-6.824 1.012-13.633 2.119-20.468 3.052l-41.004 5.704-.47.066a8.314 8.314 0 0 1-1.44.065c-2.911-.144-5.821-.306-8.73-.523l-.908-.069-.111-.014-7.241-1.268-.764-.135a6.657 6.657 0 0 1-1.57-.488l-5.25-2.402-.687-.315a5.171 5.171 0 0 1-.675-.38l-4.969-3.363-.61-.413a5.494 5.494 0 0 1-.757-.625l-8.54-8.557-2.134-2.139-1.068-1.069-.267-.268-.41-.401-.127-.14-.509-.559c-1.366-1.48-2.682-3.01-4.019-4.519l-15.993-18.158c-2.67-3.023-5.338-6.046-7.941-9.134l-7.862-9.212-3.931-4.606c-1.305-1.54-2.634-3.056-3.917-4.619l-7.731-9.341-.33-.399a.709.709 0 0 1-.082-.124l-2.705-5.373-.158-.298c-.703-2.104-1.372-4.226-2.06-6.337l-.078-.216-.946-5.125c-.321-1.706-.595-3.426-.895-5.14l-.011-.068a.646.646 0 0 1 1.254-.295l2.963 9.935-.031-.084 2.702 6.054-.048-.09 3.18 5.081-.107-.135 34.1 34.23 17 17.165 4.252 4.29c1.35 1.359 2.927 2.724 4.38 4.086l8.89 8.178-.162-.125 5.103 3.147-.159-.081 5.342 2.175-.268-.072 7.282.958-.114-.01 8.737.229-.212.014 81.65-13.573c27.21-4.57 54.46-8.898 81.686-13.358l81.697-13.29 40.85-6.64 20.435-3.255c6.8-1.048 13.602-2.274 20.404-3.404l-.3.123 6.334-4.336-.135.119 3.174-3.624-.065.086 4.404-7.015a.645.645 0 1 1 1.133.615z" fill="#686868"/><path fill="#fff" stroke="#fff" stroke-width="2.1862078200000004" stroke-linejoin="round" d="M450.19 75.782l-339.29 37.86-13.106-1.216-9.949-3.152-74.024-45.873V60.49l-4.854 2.912 6.796 6.071 67.714 42.954 6.31 3.883 9.222 3.158 12.62-.97 340.26-40.049z"/><path fill="none" stroke="#a89187" stroke-width="12.943800000000001" stroke-linecap="round" stroke-linejoin="round" d="M449.22 84.273L178.13 114.29l-66.5 7.52-15.292-.97-12.861-4.609-62.36-39.562L6.54 63.4"/><path fill="none" stroke="#FFF" stroke-width="10" stroke-linecap="round" stroke-linejoin="round" d="M336.45 241.333V624"/></svg>